<svg xmlns="http://www.w3.org/2000/svg" xmlns:xlink="http://www.w3.org/1999/xlink" viewBox="0 0 371.77 192.94"><defs><style>.cls-1{fill:url(#linear-gradient);}.cls-2{fill:url(#linear-gradient-2);}.cls-3{fill:url(#linear-gradient-3);}.cls-4{fill:url(#linear-gradient-4);}.cls-5{fill:url(#linear-gradient-5);}.cls-6{fill:url(#linear-gradient-6);}.cls-7{fill:url(#linear-gradient-7);}.cls-8{fill:url(#linear-gradient-8);}.cls-9{fill:url(#linear-gradient-9);}.cls-10{fill:url(#linear-gradient-10);}.cls-11{fill:url(#linear-gradient-11);}.cls-12{fill:url(#Degradado_sin_nombre_105);}.cls-13{fill:none;clip-rule:evenodd;}.cls-14{isolation:isolate;}.cls-15{fill:#3786db;}.cls-16{fill:#3daa74;}.cls-17{clip-path:url(#clip-path);}.cls-18,.cls-19,.cls-20{opacity:0.6;}.cls-18,.cls-19,.cls-20,.cls-29{mix-blend-mode:multiply;}.cls-18{fill:url(#Degradado_sin_nombre_119);}.cls-19{fill:url(#Degradado_sin_nombre_119-2);}.cls-20{fill:url(#Degradado_sin_nombre_119-3);}.cls-21,.cls-22{fill:#ffdd50;}.cls-22,.cls-25{mix-blend-mode:screen;}.cls-23{fill:#fca000;}.cls-24{fill:#cc7b06;}.cls-25{fill:#bf3d0d;}.cls-26{fill:#ffe98e;}.cls-27{fill:#fff;}.cls-28{fill:#e3ad4d;}.cls-29{fill:#225592;opacity:0.2;}.cls-30{clip-path:url(#clip-path-2);}.cls-31{fill:url(#linear-gradient-12);}.cls-32{mask:url(#mask);}.cls-33{fill:#5ef9f6;}.cls-33,.cls-41,.cls-46{fill-rule:evenodd;}.cls-34{mask:url(#mask-2);}.cls-35{clip-path:url(#clip-path-3);}.cls-36{fill:url(#linear-gradient-13);}.cls-37{clip-path:url(#clip-path-4);}.cls-38{fill:url(#linear-gradient-14);}.cls-39{mask:url(#mask-3);}.cls-40{mask:url(#mask-4);}.cls-41{fill:#51f4e9;}.cls-42{mask:url(#mask-5);}.cls-43{clip-path:url(#clip-path-5);}.cls-44{fill:url(#linear-gradient-15);}.cls-45{mask:url(#mask-6);}.cls-46{fill:#102770;}.cls-47{mask:url(#mask-7);}.cls-48{mask:url(#mask-8);}.cls-49{mask:url(#mask-9);}.cls-50{mask:url(#mask-10);}.cls-51{mask:url(#mask-11);}</style><linearGradient id="linear-gradient" x1="-4339.93" y1="563.21" x2="-4419.53" y2="645.95" gradientTransform="translate(4479.46 -537.9)" gradientUnits="userSpaceOnUse"><stop offset="0" stop-color="#fff"/><stop offset="1"/></linearGradient><linearGradient id="linear-gradient-2" x1="-4487.09" y1="703.51" x2="-4525.51" y2="747.57" gradientTransform="translate(4606.77 -662.42)" xlink:href="#linear-gradient"/><linearGradient id="linear-gradient-3" x1="-4531.64" y1="827.67" x2="-4550.45" y2="885.39" gradientTransform="translate(4644.96 -808.15)" xlink:href="#linear-gradient"/><linearGradient id="linear-gradient-4" x1="-4732.14" y1="464.42" x2="-4778.68" y2="477.61" gradientTransform="translate(4873.37 -358.16)" xlink:href="#linear-gradient"/><linearGradient id="linear-gradient-5" x1="-4607.35" y1="524.33" x2="-4664.37" y2="452.16" gradientTransform="translate(4754.87 -358.16)" xlink:href="#linear-gradient"/><linearGradient id="linear-gradient-6" x1="-4641.21" y1="529.44" x2="-4698.86" y2="456.48" gradientTransform="translate(4785.06 -358.16)" xlink:href="#linear-gradient"/><linearGradient id="linear-gradient-7" x1="-4412.15" y1="784.9" x2="-4413.78" y2="745.79" gradientTransform="translate(4479.46 -695.87)" xlink:href="#linear-gradient"/><linearGradient id="linear-gradient-8" x1="-4430.37" y1="794.24" x2="-4395.17" y2="773.29" gradientTransform="translate(4479.46 -695.86)" xlink:href="#linear-gradient"/><linearGradient id="linear-gradient-9" x1="-4400.04" y1="499.98" x2="-4402.63" y2="447.51" gradientTransform="translate(4479.46 -358.16)" xlink:href="#linear-gradient"/><linearGradient id="linear-gradient-10" x1="-4602.69" y1="487.65" x2="-4607.57" y2="551.41" gradientTransform="translate(4694.87 -419.92)" xlink:href="#linear-gradient"/><linearGradient id="linear-gradient-11" x1="-4396.79" y1="461.19" x2="-4420.41" y2="494.71" gradientTransform="translate(4479.46 -358.16)" xlink:href="#linear-gradient"/><linearGradient id="Degradado_sin_nombre_105" x1="91.48" y1="170.2" x2="91.48" y2="7.15" gradientUnits="userSpaceOnUse"><stop offset="0" stop-color="#4479ff"/><stop offset="1" stop-color="#54ff93"/></linearGradient><clipPath id="clip-path"><path class="cls-12" d="M91.48,4.48C45,4.48,7.28,42,7.28,88.34s37.7,83.87,84.2,83.87a84,84,0,0,0,84.19-83.87C175.67,42,138,4.48,91.48,4.48Zm0,156.93a73.07,73.07,0,1,1,73.35-73.07A73.21,73.21,0,0,1,91.48,161.41Z"/></clipPath><linearGradient id="Degradado_sin_nombre_119" x1="59.87" y1="44.68" x2="124.4" y2="21.32" gradientUnits="userSpaceOnUse"><stop offset="0" stop-color="#54ff93" stop-opacity="0"/><stop offset="0.19" stop-color="#4bd6a0" stop-opacity="0.24"/><stop offset="0.48" stop-color="#3ea0b2" stop-opacity="0.56"/><stop offset="0.71" stop-color="#3578bf" stop-opacity="0.8"/><stop offset="0.9" stop-color="#2f5fc7" stop-opacity="0.95"/><stop offset="1" stop-color="#2d56ca"/></linearGradient><linearGradient id="Degradado_sin_nombre_119-2" x1="-4282.25" y1="2570.19" x2="-4217.89" y2="2546.9" gradientTransform="translate(-4283.42 -2333.99) rotate(-119.41)" xlink:href="#Degradado_sin_nombre_119"/><linearGradient id="Degradado_sin_nombre_119-3" x1="-4911.26" y1="-1856.45" x2="-4846.91" y2="-1879.74" gradientTransform="translate(-4559.39 2398.92) rotate(133.24)" xlink:href="#Degradado_sin_nombre_119"/><clipPath id="clip-path-2"><polygon class="cls-13" points="77.73 78.71 99.29 48.64 120.13 48.64 92.91 85.4 82.22 99.85 82.22 99.85 77.73 105.92 77.73 135.32 62.82 135.32 62.82 90.09 68.08 84.98 77.73 78.71"/></clipPath><linearGradient id="linear-gradient-12" x1="50.97" y1="130.69" x2="150.14" y2="35.91" gradientUnits="userSpaceOnUse"><stop offset="0" stop-color="#102770"/><stop offset="1" stop-color="#37dacf"/></linearGradient><mask id="mask" x="62.82" y="48.64" width="46.89" height="64.07" maskUnits="userSpaceOnUse"><rect class="cls-1" x="62.82" y="48.64" width="46.89" height="64.07"/></mask><mask id="mask-2" x="74.29" y="48.64" width="35.42" height="48.41" maskUnits="userSpaceOnUse"><rect class="cls-2" x="74.29" y="48.64" width="35.42" height="48.41"/></mask><clipPath id="clip-path-3"><path class="cls-13" d="M77.73,105.92s-14.25,18.72-14.91,29.4H77.73Z"/></clipPath><linearGradient id="linear-gradient-13" x1="68.01" y1="117.59" x2="82.64" y2="137.16" gradientUnits="userSpaceOnUse"><stop offset="0" stop-color="#102770"/><stop offset="1" stop-color="#267a9e"/></linearGradient><clipPath id="clip-path-4"><polygon class="cls-13" points="92.91 85.4 82.22 99.85 100.13 135.32 119.21 135.32 92.91 85.4"/></clipPath><linearGradient id="linear-gradient-14" x1="75.99" y1="96.63" x2="154.8" y2="140.39" xlink:href="#linear-gradient-12"/><mask id="mask-3" x="98.29" y="95.61" width="20.92" height="39.71" maskUnits="userSpaceOnUse"><rect class="cls-4" x="98.29" y="95.61" width="20.92" height="39.71"/></mask><mask id="mask-4" x="87.62" y="85.4" width="31.59" height="49.92" maskUnits="userSpaceOnUse"><rect class="cls-5" x="87.62" y="85.4" width="31.59" height="49.92"/></mask><mask id="mask-5" x="90.34" y="97.82" width="20.56" height="37.5" maskUnits="userSpaceOnUse"><rect class="cls-6" x="90.34" y="97.82" width="20.56" height="37.5"/></mask><clipPath id="clip-path-5"><path class="cls-13" d="M77.73,78.71V48.64H62.82V90.09c0,9.77,13.68-9.58,14.91-11.38"/></clipPath><linearGradient id="linear-gradient-15" x1="79.95" y1="96.21" x2="50.77" y2="29.97" xlink:href="#linear-gradient-12"/><mask id="mask-6" x="62.82" y="48.64" width="7.45" height="44.2" maskUnits="userSpaceOnUse"><rect class="cls-7" x="62.82" y="48.64" width="7.45" height="44.2"/></mask><mask id="mask-7" x="62.82" y="78.71" width="14.9" height="14.13" maskUnits="userSpaceOnUse"><rect class="cls-8" x="62.82" y="78.71" width="14.9" height="14.13"/></mask><mask id="mask-8" x="62.82" y="85.4" width="30.09" height="49.92" maskUnits="userSpaceOnUse"><rect class="cls-9" x="62.82" y="85.4" width="30.09" height="49.92"/></mask><mask id="mask-9" x="82.22" y="85.4" width="13.98" height="42.15" maskUnits="userSpaceOnUse"><rect class="cls-10" x="82.22" y="85.4" width="13.98" height="42.15"/></mask><mask id="mask-10" x="62.82" y="105.92" width="14.9" height="29.4" maskUnits="userSpaceOnUse"><rect class="cls-11" x="62.82" y="105.92" width="14.9" height="29.4"/></mask><mask id="mask-11" x="77.73" y="48.64" width="42.41" height="30.07" maskUnits="userSpaceOnUse"><rect class="cls-3" x="77.73" y="48.64" width="42.41" height="30.07"/></mask></defs><title>Plan de travail 1</title><g class="cls-14"><g id="Calque_1" data-name="Calque 1"><path class="cls-15" d="M184.58,67.72h16.33v1.59c-3.88.39-4.47.6-4.47,4.22v7.22a11.86,11.86,0,0,0,4.2-2.28,77.15,77.15,0,0,0,7.65-6.84c1.3-1.33,1-2-1.51-2.23l-1-.09V67.72h14.12v1.59c-3.72.39-5.71.6-9.11,3.53-2.1,1.76-4.74,3.91-7.11,6,3.39,3.79,7.6,8.39,11.75,12.56,2,2.06,2.69,2.37,5.44,2.71v1.59H210.12c-2.26-2.45-7-7.65-10.83-12-1.13-1.29-2-1.54-2.85-1.42v7.62c0,3.65.37,3.78,4.52,4.21v1.59H184.58V94.08c4-.34,4.58-.56,4.58-4.21V73.53c0-3.62-.54-3.92-4.58-4.22Z"/><path class="cls-15" d="M222.79,95.67V94.08c4.1-.3,4.58-.56,4.58-4.17V73.53c0-3.62-.54-4-4.58-4.22V67.72h16.65v1.59c-4,.3-4.58.6-4.58,4.22V89.91c0,3.57.49,3.83,4.58,4.17v1.59Z"/><path class="cls-15" d="M261.92,95.67V94.08c3.39-.39,3.39-.86,2.64-2.71-.54-1.29-1.4-3.22-2.21-4.94H251.84c-.59,1.33-1.35,3-1.89,4.29-1.13,2.71.17,3.06,4.42,3.36v1.59H241.06V94.08c3.4-.34,4.26-.73,6.09-4.34l11.21-22.23,2.59-.39c3.45,7.48,7.11,15.13,10.62,22.31,2,4,2.47,4.31,6,4.65v1.59Zm-4.74-20.55c-1.57,3.09-3.08,6-4.42,9.11h8.57Z"/><path class="cls-15" d="M307.19,95.67V94.08c4.1-.34,4.37-.65,4.37-4.52l-.06-16.77c-3.88,7.4-8.13,15.57-12,22.88h-1.77c-3.51-7-7.33-15-11.21-22.53-.7,13.5-.7,16.17-.7,17.71.05,2.33,1.13,2.93,5.17,3.23v1.59H277.6V94.08c3.08-.22,4.48-.69,4.91-3.27.21-1.29.43-3.74,1.67-17.93.16-2.06-.22-3.22-4.85-3.57V67.72H291l10.4,19,10.46-19H323.2v1.59c-4.31.35-4.8.69-4.69,4.13l.43,16.12c.05,3.87.27,4,4.64,4.52v1.59Z"/><path class="cls-15" d="M345.89,95.67V94.08c3.4-.39,3.4-.86,2.64-2.71-.54-1.29-1.4-3.22-2.21-4.94H335.81c-.59,1.33-1.35,3-1.89,4.29-1.13,2.71.17,3.06,4.42,3.36v1.59H325V94.08c3.4-.34,4.26-.73,6.09-4.34l11.21-22.23,2.59-.39c3.45,7.48,7.11,15.13,10.62,22.31,2,4,2.48,4.31,6,4.65v1.59Zm-4.74-20.55c-1.57,3.09-3.07,6-4.42,9.11h8.57Z"/><path class="cls-16" d="M197.18,109.83v-.19c.58-.06.63-.09.63-.69v-2.78c0-.6-.05-.63-.63-.69v-.2h1.88v.2c-.58.06-.64.09-.64.69V109c0,.6.06.63.64.69v.19Z"/><path class="cls-16" d="M203.27,106.37a2.38,2.38,0,0,0-.22-.51c-.13-.24-.24-.3-.63-.3h-.76c-.2,0-.22,0-.22.23v1.61h.87c.51,0,.54-.08.65-.57h.21v1.46H203c-.09-.49-.14-.6-.64-.6h-.87v1.25c0,.61.07.64.71.7v.19h-2v-.19c.57,0,.64-.09.64-.7v-2.77c0-.61-.07-.64-.64-.69v-.2h3.23c0,.25,0,.74.07,1.08Z"/><path class="cls-16" d="M210.32,105.48c-.49,0-.57.13-.85.58s-.58,1-.93,1.62a.76.76,0,0,0-.1.41V109c0,.58.06.63.72.69v.19h-2v-.19c.64-.09.69-.1.69-.69v-.9a.74.74,0,0,0-.14-.41c-.25-.45-.49-.89-.87-1.55-.27-.48-.34-.56-.82-.61v-.2h1.73v.2c-.51.07-.48.16-.35.4.29.54.62,1.17.92,1.69l.85-1.62c.16-.35.14-.42-.42-.47v-.2h1.59Z"/><path class="cls-16" d="M213.25,105.18a2.26,2.26,0,0,1,2.28,2.32,2.33,2.33,0,1,1-4.65.1A2.34,2.34,0,0,1,213.25,105.18Zm-.14.26c-.79,0-1.5.66-1.5,2s.71,2.26,1.71,2.26c.85,0,1.49-.63,1.49-2S214,105.44,213.11,105.44Z"/><path class="cls-16" d="M221.43,105.48c-.44,0-.61.14-.62.46,0,.16,0,.46,0,1.1v.76a2.27,2.27,0,0,1-.49,1.68,1.73,1.73,0,0,1-1.3.45,1.89,1.89,0,0,1-1.15-.32,1.85,1.85,0,0,1-.63-1.62V106.2c0-.63-.05-.67-.62-.72v-.2h1.85v.2c-.56,0-.62.09-.62.72V108c0,1,.49,1.58,1.33,1.58,1,0,1.32-.61,1.32-1.78V107a10.08,10.08,0,0,0,0-1.1c0-.31-.18-.43-.7-.46v-.2h1.69Z"/><path class="cls-16" d="M228.52,108.71a8.33,8.33,0,0,1-.39,1.06,6.48,6.48,0,0,1-1.29.17,2.31,2.31,0,0,1-2.53-2.34,2.43,2.43,0,0,1,2.66-2.42,7.62,7.62,0,0,1,1.33.16c0,.32.08.74.13,1.09l-.21,0a1.19,1.19,0,0,0-.67-.9,1.81,1.81,0,0,0-.74-.14,1.77,1.77,0,0,0-1.77,2c0,1.35.7,2.22,1.84,2.22.72,0,1.07-.33,1.43-1Z"/><path class="cls-16" d="M232.26,109.83v-.19c.45-.06.51-.13.41-.39s-.23-.63-.38-1.07h-1.52c-.11.32-.22.59-.31.88-.16.45-.06.51.52.58v.19h-1.63v-.19c.44-.06.56-.11.8-.74l1.46-3.67.22,0c.45,1.2.93,2.53,1.38,3.74.22.61.28.66.78.72v.19Zm-.71-3.73c-.22.6-.46,1.24-.67,1.79h1.31Z"/><path class="cls-16" d="M239.55,105.48c-.45,0-.59.12-.62.44s0,.52,0,1.17v2.81h-.26l-3-3.67V108c0,.63,0,.94,0,1.14,0,.36.19.47.7.51v.19h-1.71v-.19c.43,0,.6-.14.63-.49s0-.53,0-1.17v-1.79a.63.63,0,0,0-.14-.46c-.14-.18-.29-.22-.63-.25v-.2h1.05l3,3.52v-1.71c0-.65,0-1,0-1.16s-.18-.42-.74-.45v-.2h1.73Z"/><path class="cls-16" d="M244.48,105.28a2.83,2.83,0,0,1,2.06.61,2,2,0,0,1,.59,1.5,2.3,2.3,0,0,1-.87,1.89,3.38,3.38,0,0,1-2.09.55h-1.64v-.19c.6-.06.63-.11.63-.68v-2.8c0-.6-.08-.63-.63-.68v-.2Zm-.71,3.62c0,.53.23.68.76.68a1.85,1.85,0,0,0,1.91-2.09,1.8,1.8,0,0,0-.82-1.68,2.16,2.16,0,0,0-1.2-.28,1,1,0,0,0-.56.1c-.06,0-.09.11-.09.39Z"/><path class="cls-16" d="M252.41,109.89h-.26a1.25,1.25,0,0,1-1.1-.61c-.26-.35-.51-.79-.74-1.15s-.23-.27-.59-.27h-.25V109c0,.6.08.63.64.69v.19h-1.88v-.19c.59-.06.64-.09.64-.69v-2.79c0-.6-.08-.62-.64-.68v-.2H250a1.92,1.92,0,0,1,1.12.24,1,1,0,0,1,.48.92,1.28,1.28,0,0,1-.91,1.21c.13.22.43.69.65,1a5.32,5.32,0,0,0,.55.72,1,1,0,0,0,.51.32Zm-2.6-2.28a1.09,1.09,0,0,0,.77-.2,1,1,0,0,0,.39-.86.94.94,0,0,0-1-1c-.2,0-.32,0-.37.07s-.09.12-.09.3v1.71Z"/><path class="cls-16" d="M256.75,108.72c0,.18-.23.9-.3,1.11H253v-.19c.65,0,.7-.11.7-.69v-2.77c0-.62-.08-.65-.6-.7v-.2h3.17c0,.17,0,.7.06,1.07l-.21,0a2.25,2.25,0,0,0-.21-.53c-.11-.23-.27-.28-.7-.28h-.66c-.22,0-.24,0-.24.23v1.54h.78c.53,0,.57-.1.65-.58H256v1.45h-.22c-.09-.51-.15-.58-.65-.58h-.78V109c0,.5.16.54.51.54h.65c.43,0,.5-.06.66-.24a3.37,3.37,0,0,0,.38-.65Z"/><path class="cls-16" d="M260,109.83v-.19c.46-.06.51-.13.41-.39s-.23-.63-.38-1.07h-1.52l-.31.88c-.16.45-.06.51.52.58v.19h-1.63v-.19c.45-.06.56-.11.81-.74l1.45-3.67.23,0,1.37,3.74c.22.61.29.66.79.72v.19Zm-.7-3.73-.68,1.79H260Z"/><path class="cls-16" d="M266.41,109.83v-.19c.58-.06.6-.1.59-.85v-2.86c-.58,1.29-1.51,3.29-1.75,3.9h-.18c-.24-.63-1-2.56-1.57-3.83-.12,2.45-.13,3-.13,3.14,0,.39.18.45.66.5v.19h-1.67v-.19c.41,0,.58-.13.64-.51s.05-.56.23-3.11c0-.37,0-.49-.66-.54v-.2h1.22l1.56,3.55,1.66-3.55h1.23v.2c-.6.07-.68.13-.66.62l0,2.69c0,.75,0,.79.66.85v.19Z"/><path class="cls-16" d="M271.33,109.83v-.19c.57-.06.63-.09.63-.69v-2.78c0-.6-.06-.63-.63-.69v-.2h1.88v.2c-.58.06-.64.09-.64.69V109c0,.6.06.63.64.69v.19Z"/><path class="cls-16" d="M278,106.38a2.52,2.52,0,0,0-.22-.58c-.11-.19-.18-.24-.57-.24h-.7V109c0,.55.05.63.72.67v.19h-2.05v-.19c.66,0,.71-.11.71-.67v-3.41h-.64c-.38,0-.5,0-.62.25a3.47,3.47,0,0,0-.23.57h-.21c0-.43.09-.87.11-1.26h.16c.1.17.18.16.38.16h2.78a.35.35,0,0,0,.36-.16h.17c0,.33,0,.83.07,1.24Z"/><path class="cls-16" d="M278.52,110.46c.31-.14.56-.33.56-.6s-.2-.31-.45-.38c0,0-.11-.09-.11-.21a.35.35,0,0,1,.39-.35.67.67,0,0,1,.6.74,1.14,1.14,0,0,1-.9,1Z"/><path class="cls-16" d="M289.09,105.48c-.5.07-.57.12-.76.7s-.79,2.48-1.18,3.73h-.24c-.36-1.09-.84-2.44-1.2-3.48l-1.19,3.48h-.23c-.35-1.2-.75-2.51-1.13-3.74-.19-.57-.27-.64-.72-.69v-.2h1.74v.2c-.53,0-.54.13-.44.48.27,1,.55,1.88.84,2.87.39-1.12.81-2.34,1.17-3.49H286c.39,1.2.78,2.3,1.19,3.49.3-.93.7-2.18.85-2.78.11-.41.05-.5-.55-.57v-.2h1.62Z"/><path class="cls-16" d="M293.47,108.72c0,.18-.23.9-.3,1.11h-3.42v-.19c.65,0,.7-.11.7-.69v-2.77c0-.62-.08-.65-.6-.7v-.2H293c0,.17,0,.7.06,1.07l-.21,0a2.25,2.25,0,0,0-.21-.53c-.11-.23-.28-.28-.7-.28h-.67c-.21,0-.23,0-.23.23v1.54h.78c.53,0,.57-.1.65-.58h.22v1.45h-.22c-.09-.51-.15-.58-.65-.58h-.78V109c0,.5.16.54.51.54h.65c.43,0,.5-.06.66-.24a3.37,3.37,0,0,0,.38-.65Z"/><path class="cls-16" d="M300.66,108.71a8.33,8.33,0,0,1-.39,1.06,6.48,6.48,0,0,1-1.29.17,2.32,2.32,0,0,1-2.54-2.34,2.44,2.44,0,0,1,2.67-2.42,7.77,7.77,0,0,1,1.33.16c0,.32.08.74.13,1.09l-.21,0c-.15-.47-.31-.76-.67-.9a1.84,1.84,0,0,0-.74-.14,1.77,1.77,0,0,0-1.77,2c0,1.35.7,2.22,1.84,2.22.72,0,1.07-.33,1.43-1Z"/><path class="cls-16" d="M304.39,109.83v-.19c.46-.06.52-.13.42-.39s-.23-.63-.38-1.07h-1.52c-.11.32-.22.59-.32.88-.15.45,0,.51.52.58v.19h-1.62v-.19c.44-.06.55-.11.8-.74l1.46-3.67.22,0c.45,1.2.93,2.53,1.37,3.74.23.61.29.66.79.72v.19Zm-.7-3.73c-.22.6-.46,1.24-.67,1.79h1.31Z"/><path class="cls-16" d="M311.69,105.48c-.45,0-.6.12-.62.44s0,.52,0,1.17v2.81h-.27l-3-3.67V108a11.39,11.39,0,0,0,0,1.14c0,.36.19.47.69.51v.19h-1.7v-.19c.43,0,.6-.14.63-.49s0-.53,0-1.17v-1.79a.59.59,0,0,0-.14-.46c-.13-.18-.28-.22-.62-.25v-.2h1.05l3,3.52v-1.71c0-.65,0-1,0-1.16s-.18-.42-.75-.45v-.2h1.74Z"/><path class="cls-16" d="M317.07,107.37c.68.11,1.23.43,1.23,1.11a1.2,1.2,0,0,1-.69,1.08,2.33,2.33,0,0,1-1.21.27h-1.73v-.19c.59-.06.63-.12.63-.67v-2.81c0-.58-.06-.63-.63-.68v-.2h1.84a1.8,1.8,0,0,1,1.08.25.89.89,0,0,1,.42.78A1.12,1.12,0,0,1,317.07,107.37Zm-.81-.09c.78,0,1.09-.3,1.09-.88s-.3-.87-1-.87a.74.74,0,0,0-.4.07c-.05.05-.07.12-.07.35v1.33Zm-.35,1.67c0,.51.11.63.61.63a1,1,0,0,0,1.09-1c0-.71-.51-1-1.37-1h-.33Z"/><path class="cls-16" d="M324,105.48c-.44,0-.6.14-.62.46,0,.16,0,.46,0,1.1v.76a2.23,2.23,0,0,1-.49,1.68,1.71,1.71,0,0,1-1.29.45,1.92,1.92,0,0,1-1.16-.32,1.85,1.85,0,0,1-.63-1.62V106.2c0-.63-.05-.67-.61-.72v-.2H321v.2c-.57,0-.62.09-.62.72V108c0,1,.48,1.58,1.33,1.58,1,0,1.31-.61,1.31-1.78V107c0-.64,0-.91,0-1.1s-.19-.43-.71-.46v-.2H324Z"/><path class="cls-16" d="M324.77,109.83v-.19c.58-.06.64-.09.64-.69v-2.78c0-.6-.06-.63-.64-.69v-.2h1.89v.2c-.59.06-.64.09-.64.69V109c0,.6.05.63.64.69v.19Z"/><path class="cls-16" d="M331.32,108.67c0,.22-.25,1-.32,1.16h-3.28v-.19c.64-.06.7-.1.7-.7v-2.78c0-.59-.07-.63-.63-.68v-.2h1.88v.2c-.56,0-.64.08-.64.68V109c0,.43.06.53.46.54H330c.36,0,.47,0,.63-.21a2.38,2.38,0,0,0,.43-.72Z"/><path class="cls-16" d="M334.16,105.28a2.82,2.82,0,0,1,2,.61,2,2,0,0,1,.6,1.5,2.31,2.31,0,0,1-.88,1.89,3.36,3.36,0,0,1-2.08.55H332.2v-.19c.61-.06.63-.11.63-.68v-2.8c0-.6-.08-.63-.63-.68v-.2Zm-.71,3.62c0,.53.22.68.75.68a1.85,1.85,0,0,0,1.91-2.09,1.81,1.81,0,0,0-.81-1.68,2.22,2.22,0,0,0-1.21-.28,1,1,0,0,0-.55.1c-.07,0-.09.11-.09.39Z"/><path class="cls-16" d="M339.93,109.83v-.19c.58-.06.63-.09.63-.69v-2.78c0-.6-.05-.63-.63-.69v-.2h1.89v.2c-.59.06-.64.09-.64.69V109c0,.6.05.63.64.69v.19Z"/><path class="cls-16" d="M346.62,106.38a3,3,0,0,0-.23-.58c-.11-.19-.18-.24-.57-.24h-.7V109c0,.55.06.63.72.67v.19h-2v-.19c.65,0,.71-.11.71-.67v-3.41h-.64c-.39,0-.5,0-.62.25a2.76,2.76,0,0,0-.23.57h-.21c0-.43.08-.87.1-1.26h.16c.11.17.19.16.38.16h2.79a.36.36,0,0,0,.36-.16h.17c0,.33,0,.83.06,1.24Z"/><path class="cls-16" d="M347.62,109.93a.45.45,0,0,1,0-.89.45.45,0,0,1,0,.89Z"/><path class="cls-12" d="M91.48,4.48C45,4.48,7.28,42,7.28,88.34s37.7,83.87,84.2,83.87a84,84,0,0,0,84.19-83.87C175.67,42,138,4.48,91.48,4.48Zm0,156.93a73.07,73.07,0,1,1,73.35-73.07A73.21,73.21,0,0,1,91.48,161.41Z"/><g class="cls-17"><path class="cls-18" d="M67.55-.86s68.54-4.5,63.52,62.52A616.82,616.82,0,0,1,21.6,29.9Z"/><path class="cls-19" d="M15,149.68S-22.58,92.42,38.5,63.87a610.07,610.07,0,0,1,26,110.57Z"/><path class="cls-20" d="M185.3,129.5s-43.66,52.83-89.24,3.27a616,616,0,0,1,98.21-57.68Z"/></g><path class="cls-21" d="M143,12.43l.25,0a.45.45,0,0,0,.16,0,.71.71,0,0,0,.2,0l.23-.1a.8.8,0,0,0,.24-.13l6.54,10.13,12,.31c0,.06,0,.11,0,.17a1.5,1.5,0,0,0,0,.29,1.4,1.4,0,0,0,.06.28,1.19,1.19,0,0,0,.11.26.72.72,0,0,0,.14.24,1.87,1.87,0,0,0,.85.72h0L158.28,35l5.65,10.26-.23.15h0a2.06,2.06,0,0,0-.51.51l0,.07a.72.72,0,0,0-.11.19,2,2,0,0,0-.19.86,1.27,1.27,0,0,0,0,.28s0,0,0,.06l-12,.5L144.49,58.1a1.87,1.87,0,0,0-.8-.28,1.37,1.37,0,0,0-.29,0,2,2,0,0,0-.56.08l-.23.08h0a1.42,1.42,0,0,0-.23.14L135.82,48l-11.95-.32a1.66,1.66,0,0,0,0-.24,1.53,1.53,0,0,0,0-.3,1.74,1.74,0,0,0-.19-.57,1,1,0,0,0-.13-.22,0,0,0,0,1,0,0,1.06,1.06,0,0,0-.17-.2,1.89,1.89,0,0,0-.2-.2l0,0-.21-.14h0a1.23,1.23,0,0,0-.25-.14l5.51-10.39-5.71-10.37.26-.14a2,2,0,0,0,.62-.59,1.16,1.16,0,0,0,.15-.26,2.18,2.18,0,0,0,.11-.27,1.24,1.24,0,0,0,.06-.29,1.53,1.53,0,0,0,0-.3,1,1,0,0,0,0-.17l11.93-.5L142,12.14a1.27,1.27,0,0,0,.23.12.05.05,0,0,1,0,0l.22.08A2,2,0,0,0,143,12.43Zm.36,43.71L149.73,46l12.1-.52L156.05,35l5.61-10.56-12.1-.32-6.49-10-6.33,10.15-12.1.51,5.78,10.47-5.61,10.55,12.1.33Z"/><path class="cls-21" d="M122.93,45.77l.21.14,0,0a1.89,1.89,0,0,1,.2.2,1.63,1.63,0,0,1,.17.2,0,0,0,0,0,0,0,.8.8,0,0,1,.13.22,1.74,1.74,0,0,1,.19.57,1.53,1.53,0,0,1,0,.3,1.66,1.66,0,0,1,0,.24,2,2,0,0,1-2,1.78,2,2,0,1,1,1-3.69Z"/><path class="cls-21" d="M144.48,58.1h0a2,2,0,0,1,1,1.68,2,2,0,0,1-4.06,0,2,2,0,0,1,1-1.7l.23-.14h0l.23-.08a2,2,0,0,1,.56-.08,1.42,1.42,0,0,1,.29,0A2.07,2.07,0,0,1,144.48,58.1Z"/><path class="cls-21" d="M164.85,45a2,2,0,1,1,0,4,2,2,0,0,1-2-1.71,1.27,1.27,0,0,1,0-.28,2,2,0,0,1,.19-.86l.11-.19,0-.07a2.24,2.24,0,0,1,.51-.51h0a2,2,0,0,1,.23-.14h0A2,2,0,0,1,164.85,45Z"/><path class="cls-21" d="M166.69,22.69a2,2,0,0,1-2,2,2.11,2.11,0,0,1-.85-.17h0a2,2,0,0,1-.85-.72,1.88,1.88,0,0,1-.14-.24,1.19,1.19,0,0,1-.11-.26,1.4,1.4,0,0,1-.06-.28,1.43,1.43,0,0,1,0-.29c0-.06,0-.11,0-.17a2,2,0,0,1,4,.14Z"/><path class="cls-21" d="M143,8.45a2,2,0,0,1,2.05,2,2,2,0,0,1-.94,1.69.8.8,0,0,1-.24.13l-.23.1a.71.71,0,0,1-.2,0,.41.41,0,0,1-.16,0l-.25,0a2,2,0,0,1-.56-.07l-.22-.08a.05.05,0,0,0,0,0l-.23-.12a2,2,0,0,1-1-1.68A2,2,0,0,1,143,8.45Z"/><path class="cls-21" d="M123.68,22.85a1,1,0,0,1,0,.17,1.45,1.45,0,0,1,0,.3,1.24,1.24,0,0,1-.06.29,2.18,2.18,0,0,1-.11.27,1,1,0,0,1-.15.26,2,2,0,0,1-.62.59l-.26.14a2,2,0,1,1,1.22-2Z"/><path class="cls-21" d="M149.52,24.21a12.45,12.45,0,0,1,.17,21.72,12.89,12.89,0,0,1-6.36,1.72A12.72,12.72,0,0,1,137,46a12.43,12.43,0,0,1-.17-21.7,12.88,12.88,0,0,1,12.74-.11Z"/><path class="cls-22" d="M152.81,26.85a12.75,12.75,0,0,0-3.29-2.64,13.63,13.63,0,0,0-1.64-.77A100.66,100.66,0,0,0,131.5,40a12.66,12.66,0,0,0,4.24,5.23C140.73,38.43,146.85,32.72,152.81,26.85Z"/><path class="cls-22" d="M154.41,29.12a168.33,168.33,0,0,0-15,18,12.47,12.47,0,0,0,1.52.36,107.4,107.4,0,0,1,14.13-17A13.53,13.53,0,0,0,154.41,29.12Z"/><path class="cls-23" d="M130.5,35.22A12.47,12.47,0,0,0,137,46l0,.08-12.1-.33,5.61-10.55Z"/><path class="cls-23" d="M149.69,45.93l0,.07L143.4,56.14l-6.49-10,0-.08a12.72,12.72,0,0,0,6.38,1.63A12.89,12.89,0,0,0,149.69,45.93Z"/><path class="cls-23" d="M156.05,35l5.78,10.46-12.1.52,0-.07A12.49,12.49,0,0,0,156,35Z"/><path class="cls-23" d="M161.66,24.46,156.05,35H156a12.48,12.48,0,0,0-6.45-10.81l0-.07Z"/><path class="cls-23" d="M143.07,14.09l6.49,10.05,0,.07a12.88,12.88,0,0,0-12.74.11l0-.08Z"/><path class="cls-23" d="M124.64,24.75l12.1-.51,0,.08a12.46,12.46,0,0,0-6.28,10.9h-.08Z"/><path class="cls-24" d="M136.87,46.14l-6,0-6-.07h-.42l.19-.39c1.81-3.55,3.67-7.07,5.51-10.6v.34c-2-3.47-3.86-7-5.76-10.47l-.28-.51h.58l12.1-.35-.17.09,3.21-5.05c1.07-1.69,2.13-3.37,3.18-5.07l.11-.19.13.18c2.16,3.35,4.36,6.68,6.57,10l-.2-.11,12.11.19h.58l-.27.52-5.54,10.59v-.41c1.95,3.48,3.86,7,5.78,10.47l.34.62-.72,0c-4,.16-8.06.33-12.1.44l.32-.18L143.6,56.28l-.22.33-.2-.33c-1.06-1.69-2.14-3.37-3.18-5.07Zm0-.09,3.36,5c1.13,1.65,2.21,3.33,3.32,5h-.43l6.22-10.22.1-.17h.21c4-.23,8.06-.4,12.09-.57l-.37.65c-1.93-3.49-3.87-7-5.76-10.48l-.11-.2.11-.2,5.66-10.53.32.53-12.1-.44h-.13l-.06-.1q-3.19-5.07-6.41-10.1h.24c-1.07,1.69-2.12,3.39-3.16,5.08l-3.13,5.11,0,.08h-.11l-12.08.67.3-.53c1.94,3.48,3.88,7,5.77,10.47l.09.17-.08.17c-1.89,3.51-3.77,7-5.69,10.51l-.24-.39,6,.25Z"/><path class="cls-24" d="M143.32,48.08A13,13,0,1,1,156.39,35,13.08,13.08,0,0,1,143.32,48.08ZM143.13,23a12.11,12.11,0,1,0,12.39,12A12.22,12.22,0,0,0,143.13,23Z"/><path class="cls-23" d="M144.61,58.7l-.37-.23a1.59,1.59,0,0,0-1.68,0l-.36.22-6.64-10.28-12.19-.32,0-.46a.89.89,0,0,0,0-.19,1.56,1.56,0,0,0-1-1.42l-.43-.18,5.63-10.61-5.83-10.58.44-.19a1.55,1.55,0,0,0,1-1.45l0-.57,12.15-.51,6.47-10.39.38.23a1.59,1.59,0,0,0,1.67,0l.37-.24,6.65,10.3,12.22.32,0,.53a1.55,1.55,0,0,0,.93,1.45l.42.19L158.76,35l5.76,10.45-.4.2a1.57,1.57,0,0,0-.86,1.39,2.48,2.48,0,0,0,0,.27l.08.48-12.28.51Zm-1.22-1.33a2.67,2.67,0,0,1,.92.17l6.28-10.08,11.8-.49a2.41,2.41,0,0,1,1-1.85L157.77,35l5.48-10.32a2.45,2.45,0,0,1-1-1.71l-11.81-.31-6.44-10a2.46,2.46,0,0,1-1.83,0l-6.28,10.08-11.74.49A2.41,2.41,0,0,1,123.05,25l5.62,10.2-5.43,10.24a2.45,2.45,0,0,1,1.07,1.8l11.74.31,6.44,10A2.49,2.49,0,0,1,143.39,57.37Z"/><path class="cls-25" d="M143.34,25.89a1.4,1.4,0,1,0,0,2.79c.78,0,1.47,7.59,1.4-1.41A1.4,1.4,0,0,0,143.34,25.89Z"/><path class="cls-23" d="M141.39,11.56a2.52,2.52,0,0,0,1.44.25,1.89,1.89,0,0,0,.55-.16,1.36,1.36,0,0,0,.43-.27,1.87,1.87,0,0,0,.61-.88,2.42,2.42,0,0,0,0-1.44l.06-.07a2,2,0,0,1-.09,3,2.16,2.16,0,0,1-1.64.45,2.12,2.12,0,0,1-1.42-.87Z"/><path class="cls-26" d="M144.41,9.06a2.83,2.83,0,0,0-1.34,0l-.06,0-.06,0-.15,0-.2.1a1.42,1.42,0,0,0-.38.26,2.12,2.12,0,0,0-.59.75,2.77,2.77,0,0,0-.24,1.3l-.07,0a2,2,0,0,1,.34-2.74,2.11,2.11,0,0,1,2.81.13Z"/><path class="cls-23" d="M141.92,61.08a2.65,2.65,0,0,0,1.42.09l.07,0s.05,0,.07,0a.5.5,0,0,0,.15-.05,1.12,1.12,0,0,0,.22-.11,1.28,1.28,0,0,0,.4-.29,1.88,1.88,0,0,0,.56-.87,2.58,2.58,0,0,0,0-1.41l.06-.06a2,2,0,0,1,0,3,2.13,2.13,0,0,1-3-.16Z"/><path class="cls-26" d="M144.8,58.41a2.65,2.65,0,0,0-1.38,0,2.75,2.75,0,0,0-.48.21,1.53,1.53,0,0,0-.38.29,2,2,0,0,0-.56.82,2.76,2.76,0,0,0-.08,1.35l-.07.06a2.06,2.06,0,0,1-.53-1.44,2,2,0,0,1,2.11-2,2.11,2.11,0,0,1,1.43.6Z"/><path class="cls-23" d="M120.15,24.29a2.43,2.43,0,0,0,1.47.12,1.63,1.63,0,0,0,.53-.21,1.33,1.33,0,0,0,.41-.33,1.78,1.78,0,0,0,.5-1,2.42,2.42,0,0,0-.21-1.43l.05-.07a2,2,0,0,1,.84,1.45,2.07,2.07,0,0,1-.54,1.6,2.12,2.12,0,0,1-3.12-.11Z"/><path class="cls-26" d="M122.85,21.48a3.06,3.06,0,0,0-1.33.18,2.54,2.54,0,0,0-.76.54,2,2,0,0,0-.5.8,2.88,2.88,0,0,0-.11,1.3l-.07.05a2,2,0,0,1-.5-1.37,2,2,0,0,1,.54-1.37,2.12,2.12,0,0,1,1.36-.62,2.16,2.16,0,0,1,1.42.41Z"/><path class="cls-23" d="M120.44,48.84a2.78,2.78,0,0,0,1.41,0,2.17,2.17,0,0,0,.88-.52,2.06,2.06,0,0,0,.53-.87,2.62,2.62,0,0,0,0-1.39l.06-.06a2,2,0,0,1,.64,1.44,2,2,0,0,1-.59,1.48,2.15,2.15,0,0,1-1.5.59,2.07,2.07,0,0,1-1.46-.62Z"/><path class="cls-26" d="M123.24,46.07a2.78,2.78,0,0,0-1.39,0,2.13,2.13,0,0,0-.87.52,1.85,1.85,0,0,0-.53.86,2.54,2.54,0,0,0,0,1.38l-.06.06a2.09,2.09,0,0,1-.62-1.44,2,2,0,0,1,.6-1.46,2.11,2.11,0,0,1,2.94,0Z"/><path class="cls-23" d="M163.1,23.9a2.53,2.53,0,0,0,1.43.17s.13,0,.11,0l.21,0,.21-.11a1.34,1.34,0,0,0,.42-.28,2,2,0,0,0,.58-.88,2.44,2.44,0,0,0,0-1.42l.06-.06a2,2,0,0,1,.64,1.5,2.07,2.07,0,0,1-.69,1.5,2.15,2.15,0,0,1-1.59.5A2.12,2.12,0,0,1,163,24Z"/><path class="cls-26" d="M166.05,21.31a2.91,2.91,0,0,0-1.36,0s-.26.06-.26.09l-.21.11a1.31,1.31,0,0,0-.38.27,2,2,0,0,0-.58.78,2.82,2.82,0,0,0-.09.3,1,1,0,0,0-.06.28,2.64,2.64,0,0,0,0,.75L163,24a2,2,0,0,1,.22-2.8,2.12,2.12,0,0,1,1.46-.51,2.09,2.09,0,0,1,1.4.61Z"/><path class="cls-23" d="M163.41,48.37a2.65,2.65,0,0,0,1.39,0s.26-.06.27-.09a.85.85,0,0,0,.21-.11,1.41,1.41,0,0,0,.4-.27,2,2,0,0,0,.57-.82.43.43,0,0,1,.05-.12c0-.06,0-.14,0-.17a1.13,1.13,0,0,0,.06-.3,2.88,2.88,0,0,0,0-.76l.07-.06a2,2,0,0,1-.17,2.86,2,2,0,0,1-1.49.51,2.11,2.11,0,0,1-1.42-.64Z"/><path class="cls-26" d="M166.36,45.77a2.58,2.58,0,0,0-1.42-.11s-.11,0-.12,0a.61.61,0,0,0-.17,0l-.22.1a2,2,0,0,0-1,1.14,2.57,2.57,0,0,0,0,1.4l-.06,0a2,2,0,0,1,.09-2.94A2.1,2.1,0,0,1,165,45a2.12,2.12,0,0,1,1.44.73Z"/><path class="cls-27" d="M121.67,22.59a.73.73,0,0,1-1.46,0,.73.73,0,0,1,1.46,0Z"/><path class="cls-27" d="M143.06,9.75a.74.74,0,0,1-1.47,0,.74.74,0,0,1,1.47,0Z"/><path class="cls-27" d="M164.55,22a.73.73,0,1,1-.73-.71A.72.72,0,0,1,164.55,22Z"/><path class="cls-27" d="M164.74,46.44a.72.72,0,0,1-.72.72.72.72,0,1,1,0-1.43A.71.71,0,0,1,164.74,46.44Z"/><path class="cls-27" d="M143.33,59.11a.73.73,0,1,1-.74-.72A.72.72,0,0,1,143.33,59.11Z"/><path class="cls-27" d="M121.86,46.77a.73.73,0,1,1-.74-.71A.73.73,0,0,1,121.86,46.77Z"/><path class="cls-28" d="M134.91,35.81v-.72l5.56-2.64v.71l-4.85,2.3,4.89,2.19v.72Z"/><path class="cls-28" d="M142,39.2h-.59L145,29.3h.62Z"/><path class="cls-28" d="M152.18,35v.72l-5.55,2.65V37.6l4.84-2.29-4.87-2.2v-.7Z"/><path class="cls-29" d="M128.58,183.83c0-3.16-17.61-5.72-39.33-5.72s-39.34,2.56-39.34,5.72,17.61,5.72,39.34,5.72S128.58,187,128.58,183.83Z"/><g class="cls-30"><rect class="cls-31" x="62.82" y="48.64" width="57.31" height="86.69"/></g><g class="cls-32"><polygon class="cls-33" points="77.73 78.71 99.29 48.64 109.71 48.64 62.82 112.71 62.82 90.09 68.08 84.98 77.73 78.71"/></g><g class="cls-34"><polygon class="cls-33" points="108.03 48.64 109.71 48.64 74.29 97.04 108.03 48.64"/></g><g class="cls-35"><rect class="cls-36" x="62.82" y="105.92" width="14.9" height="29.4"/></g><g class="cls-37"><rect class="cls-38" x="82.22" y="85.4" width="36.99" height="49.92"/></g><g class="cls-39"><polygon class="cls-33" points="100.13 135.32 119.21 135.32 98.29 95.61 100.13 135.32"/></g><g class="cls-40"><polygon class="cls-41" points="92.91 85.4 87.62 92.55 109.67 135.32 119.21 135.32 92.91 85.4"/></g><g class="cls-42"><polygon class="cls-41" points="90.34 97.82 109.67 135.32 110.9 135.32 90.34 97.82 90.34 97.82"/></g><g class="cls-43"><rect class="cls-44" x="62.82" y="48.64" width="14.9" height="51.23"/></g><g class="cls-45"><path class="cls-46" d="M70.27,48.64H62.82V90.09c0,5.1,3.72,2.27,7.45-1.85Z"/></g><g class="cls-47"><path class="cls-46" d="M63.64,92.67h0m14.09-14c-4,4.25-11.32,8.15-14.91.74V90.09c0,.1,0,.2,0,.3a3.74,3.74,0,0,0,.44,1.91C65.7,96,77.21,79.47,77.73,78.71Z"/></g><g class="cls-48"><path class="cls-46" d="M65.29,92.56l-.47.18.47-.18m-2.47,20.15v22.61c.66-10.68,14.91-29.4,14.91-29.4l4.49-6.07,5.4-7.3,5.29-7.15C82.6,97.6,77,99.31,73.93,97.53c-3.65-2.12-3.66-9.2-3.66-9.29-2,2.22-4,4.07-5.45,4.5a1.25,1.25,0,0,1-1.55-.44,3.24,3.24,0,0,1-.42-1.55h0c0-.12,0-.24,0-.36s0-.2,0-.3Z"/></g><g class="cls-49"><path class="cls-46" d="M92.91,85.4l-5.29,7.15-5.4,7.3,14,27.7c-4-11.11-8.49-30.94-3.29-42.15"/></g><g class="cls-50"><path class="cls-46" d="M62.82,135.32s7.68-14,14.91-13.62V105.92s-14.25,18.72-14.91,29.4"/></g><g class="cls-51"><polygon class="cls-33" points="77.73 78.71 120.13 48.64 99.29 48.64 77.73 78.71"/></g></g></g></svg>