<svg xmlns="http://www.w3.org/2000/svg" xmlns:xlink="http://www.w3.org/1999/xlink" width="190.7" height="175.37" viewBox="0 0 190.7 175.37"><defs><style>.cls-1{fill:url(#linear-gradient);}.cls-2{fill:url(#linear-gradient-2);}.cls-3{fill:url(#linear-gradient-3);}.cls-4{fill:url(#linear-gradient-4);}.cls-5{fill:url(#linear-gradient-5);}.cls-6{fill:url(#linear-gradient-6);}.cls-7{fill:url(#linear-gradient-7);}.cls-8{fill:url(#linear-gradient-8);}.cls-9{fill:url(#linear-gradient-9);}.cls-10{fill:url(#linear-gradient-10);}.cls-11{fill:url(#linear-gradient-11);}.cls-12{fill:url(#Degradado_sin_nombre_105);}.cls-13{fill:none;clip-rule:evenodd;}.cls-14{isolation:isolate;}.cls-15{clip-path:url(#clip-path);}.cls-16,.cls-17,.cls-18{opacity:0.6;mix-blend-mode:multiply;}.cls-16{fill:url(#Degradado_sin_nombre_119);}.cls-17{fill:url(#Degradado_sin_nombre_119-2);}.cls-18{fill:url(#Degradado_sin_nombre_119-3);}.cls-19,.cls-20{fill:#ffdd50;}.cls-20,.cls-23{mix-blend-mode:screen;}.cls-21{fill:#fca000;}.cls-22{fill:#cc7b06;}.cls-23{fill:#bf3d0d;}.cls-24{fill:#ffe98e;}.cls-25{fill:#fff;}.cls-26{fill:#e3ad4d;}.cls-27{clip-path:url(#clip-path-2);}.cls-28{fill:url(#linear-gradient-12);}.cls-29{mask:url(#mask);}.cls-30{fill:#5ef9f6;}.cls-30,.cls-38,.cls-43{fill-rule:evenodd;}.cls-31{mask:url(#mask-2);}.cls-32{clip-path:url(#clip-path-3);}.cls-33{fill:url(#linear-gradient-13);}.cls-34{clip-path:url(#clip-path-4);}.cls-35{fill:url(#linear-gradient-14);}.cls-36{mask:url(#mask-3);}.cls-37{mask:url(#mask-4);}.cls-38{fill:#51f4e9;}.cls-39{mask:url(#mask-5);}.cls-40{clip-path:url(#clip-path-5);}.cls-41{fill:url(#linear-gradient-15);}.cls-42{mask:url(#mask-6);}.cls-43{fill:#102770;}.cls-44{mask:url(#mask-7);}.cls-45{mask:url(#mask-8);}.cls-46{mask:url(#mask-9);}.cls-47{mask:url(#mask-10);}.cls-48{mask:url(#mask-11);}</style><linearGradient id="linear-gradient" x1="-4347.21" y1="558.73" x2="-4426.81" y2="641.47" gradientTransform="translate(4479.46 -537.9)" gradientUnits="userSpaceOnUse"><stop offset="0" stop-color="#fff"/><stop offset="1"/></linearGradient><linearGradient id="linear-gradient-2" x1="-4494.37" y1="699.03" x2="-4532.8" y2="743.09" gradientTransform="translate(4606.77 -662.42)" xlink:href="#linear-gradient"/><linearGradient id="linear-gradient-3" x1="-4538.93" y1="823.19" x2="-4557.73" y2="880.91" gradientTransform="translate(4644.96 -808.15)" xlink:href="#linear-gradient"/><linearGradient id="linear-gradient-4" x1="-4739.42" y1="459.94" x2="-4785.96" y2="473.13" gradientTransform="translate(4873.37 -358.16)" xlink:href="#linear-gradient"/><linearGradient id="linear-gradient-5" x1="-4614.63" y1="519.85" x2="-4671.66" y2="447.68" gradientTransform="translate(4754.87 -358.16)" xlink:href="#linear-gradient"/><linearGradient id="linear-gradient-6" x1="-4648.49" y1="524.96" x2="-4706.15" y2="452" gradientTransform="translate(4785.06 -358.16)" xlink:href="#linear-gradient"/><linearGradient id="linear-gradient-7" x1="-4419.43" y1="780.42" x2="-4421.06" y2="741.31" gradientTransform="translate(4479.46 -695.87)" xlink:href="#linear-gradient"/><linearGradient id="linear-gradient-8" x1="-4437.65" y1="789.76" x2="-4402.45" y2="768.81" gradientTransform="translate(4479.46 -695.86)" xlink:href="#linear-gradient"/><linearGradient id="linear-gradient-9" x1="-4407.32" y1="495.5" x2="-4409.91" y2="443.02" gradientTransform="translate(4479.46 -358.16)" xlink:href="#linear-gradient"/><linearGradient id="linear-gradient-10" x1="-4609.97" y1="483.17" x2="-4614.85" y2="546.93" gradientTransform="translate(4694.87 -419.92)" xlink:href="#linear-gradient"/><linearGradient id="linear-gradient-11" x1="-4404.07" y1="456.71" x2="-4427.69" y2="490.23" gradientTransform="translate(4479.46 -358.16)" xlink:href="#linear-gradient"/><linearGradient id="Degradado_sin_nombre_105" x1="84.2" y1="165.72" x2="84.2" y2="2.66" gradientUnits="userSpaceOnUse"><stop offset="0" stop-color="#4479ff"/><stop offset="1" stop-color="#54ff93"/></linearGradient><clipPath id="clip-path" transform="translate(3.71 5.4)"><path class="cls-12" d="M84.2,0C37.7,0,0,37.55,0,83.86s37.7,83.87,84.2,83.87a84,84,0,0,0,84.19-83.87C168.39,37.55,130.7,0,84.2,0Zm0,156.92a73.06,73.06,0,1,1,73.35-73.06A73.21,73.21,0,0,1,84.2,156.92Z"/></clipPath><linearGradient id="Degradado_sin_nombre_119" x1="52.59" y1="40.19" x2="117.11" y2="16.84" gradientUnits="userSpaceOnUse"><stop offset="0" stop-color="#54ff93" stop-opacity="0"/><stop offset="0.19" stop-color="#4bd6a0" stop-opacity="0.24"/><stop offset="0.48" stop-color="#3ea0b2" stop-opacity="0.56"/><stop offset="0.71" stop-color="#3578bf" stop-opacity="0.8"/><stop offset="0.9" stop-color="#2f5fc7" stop-opacity="0.95"/><stop offset="1" stop-color="#2d56ca"/></linearGradient><linearGradient id="Degradado_sin_nombre_119-2" x1="-4289.54" y1="2565.71" x2="-4225.17" y2="2542.42" gradientTransform="translate(-4290.37 -2347.02) rotate(-119.41)" xlink:href="#Degradado_sin_nombre_119"/><linearGradient id="Degradado_sin_nombre_119-3" x1="-4918.54" y1="-1860.93" x2="-4854.19" y2="-1884.22" gradientTransform="translate(-4574.92 2396.67) rotate(133.24)" xlink:href="#Degradado_sin_nombre_119"/><clipPath id="clip-path-2" transform="translate(3.71 5.4)"><polygon class="cls-13" points="70.44 74.22 92.01 44.15 112.85 44.15 85.63 80.92 74.94 95.37 74.94 95.37 70.44 101.44 70.44 130.84 55.54 130.84 55.54 85.61 60.8 80.5 70.44 74.22"/></clipPath><linearGradient id="linear-gradient-12" x1="47.4" y1="131.61" x2="146.57" y2="36.83" gradientUnits="userSpaceOnUse"><stop offset="0" stop-color="#102770"/><stop offset="1" stop-color="#37dacf"/></linearGradient><mask id="mask" x="59.25" y="49.56" width="46.89" height="64.07" maskUnits="userSpaceOnUse"><g transform="translate(3.71 5.4)"><rect class="cls-1" x="55.54" y="44.15" width="46.89" height="64.07"/></g></mask><mask id="mask-2" x="70.72" y="49.56" width="35.42" height="48.41" maskUnits="userSpaceOnUse"><g transform="translate(3.71 5.4)"><rect class="cls-2" x="67.01" y="44.15" width="35.42" height="48.41"/></g></mask><clipPath id="clip-path-3" transform="translate(3.71 5.4)"><path class="cls-13" d="M70.44,101.44s-14.25,18.72-14.9,29.4h14.9Z"/></clipPath><linearGradient id="linear-gradient-13" x1="64.44" y1="118.51" x2="79.07" y2="138.08" gradientUnits="userSpaceOnUse"><stop offset="0" stop-color="#102770"/><stop offset="1" stop-color="#267a9e"/></linearGradient><clipPath id="clip-path-4" transform="translate(3.71 5.4)"><polygon class="cls-13" points="85.63 80.92 74.94 95.37 92.84 130.84 111.93 130.84 85.63 80.92"/></clipPath><linearGradient id="linear-gradient-14" x1="72.41" y1="97.55" x2="151.23" y2="141.32" xlink:href="#linear-gradient-12"/><mask id="mask-3" x="94.72" y="96.54" width="20.92" height="39.71" maskUnits="userSpaceOnUse"><g transform="translate(3.71 5.4)"><rect class="cls-4" x="91.01" y="91.13" width="20.92" height="39.71"/></g></mask><mask id="mask-4" x="84.05" y="86.32" width="31.59" height="49.92" maskUnits="userSpaceOnUse"><g transform="translate(3.71 5.4)"><rect class="cls-5" x="80.34" y="80.92" width="31.59" height="49.92"/></g></mask><mask id="mask-5" x="86.77" y="98.74" width="20.56" height="37.5" maskUnits="userSpaceOnUse"><g transform="translate(3.71 5.4)"><rect class="cls-6" x="83.06" y="93.34" width="20.56" height="37.5"/></g></mask><clipPath id="clip-path-5" transform="translate(3.71 5.4)"><path class="cls-13" d="M70.44,74.22V44.15H55.54V85.61c0,9.77,13.67-9.58,14.9-11.39"/></clipPath><linearGradient id="linear-gradient-15" x1="76.37" y1="97.13" x2="47.2" y2="30.89" xlink:href="#linear-gradient-12"/><mask id="mask-6" x="59.25" y="49.56" width="7.45" height="44.2" maskUnits="userSpaceOnUse"><g transform="translate(3.71 5.4)"><rect class="cls-7" x="55.54" y="44.15" width="7.45" height="44.2"/></g></mask><mask id="mask-7" x="59.25" y="79.63" width="14.9" height="14.13" maskUnits="userSpaceOnUse"><g transform="translate(3.71 5.4)"><rect class="cls-8" x="55.54" y="74.22" width="14.9" height="14.13"/></g></mask><mask id="mask-8" x="59.25" y="86.32" width="30.09" height="49.92" maskUnits="userSpaceOnUse"><g transform="translate(3.71 5.4)"><rect class="cls-9" x="55.54" y="80.92" width="30.09" height="49.92"/></g></mask><mask id="mask-9" x="78.65" y="86.32" width="13.98" height="42.15" maskUnits="userSpaceOnUse"><g transform="translate(3.71 5.4)"><rect class="cls-10" x="74.94" y="80.92" width="13.98" height="42.15"/></g></mask><mask id="mask-10" x="59.25" y="106.85" width="14.9" height="29.4" maskUnits="userSpaceOnUse"><g transform="translate(3.71 5.4)"><rect class="cls-11" x="55.54" y="101.44" width="14.9" height="29.4"/></g></mask><mask id="mask-11" x="74.16" y="49.56" width="42.41" height="30.07" maskUnits="userSpaceOnUse"><g transform="translate(3.71 5.4)"><rect class="cls-3" x="70.44" y="44.15" width="42.41" height="30.07"/></g></mask></defs><title>svg</title><g class="cls-14"><g id="Calque_2" data-name="Calque 2"><g id="Calque_1-2" data-name="Calque 1"><path class="cls-12" d="M84.2,0C37.7,0,0,37.55,0,83.86s37.7,83.87,84.2,83.87a84,84,0,0,0,84.19-83.87C168.39,37.55,130.7,0,84.2,0Zm0,156.92a73.06,73.06,0,1,1,73.35-73.06A73.21,73.21,0,0,1,84.2,156.92Z" transform="translate(3.71 5.4)"/><g class="cls-15"><path class="cls-16" d="M60.27-5.34s68.54-4.5,63.52,62.52A616.5,616.5,0,0,1,14.32,25.42Z" transform="translate(3.71 5.4)"/><path class="cls-17" d="M7.73,145.2S-29.86,87.94,31.22,59.38A610.27,610.27,0,0,1,57.2,170Z" transform="translate(3.71 5.4)"/><path class="cls-18" d="M178,125s-43.66,52.83-89.24,3.27A616,616,0,0,1,187,70.61Z" transform="translate(3.71 5.4)"/></g><path class="cls-19" d="M135.76,8l.24,0a.47.47,0,0,0,.17,0,.71.71,0,0,0,.2,0l.23-.1a1.41,1.41,0,0,0,.24-.13l6.54,10.12,12,.32c0,.05,0,.11,0,.17a1.5,1.5,0,0,0,0,.29,1.4,1.4,0,0,0,.06.28,1.19,1.19,0,0,0,.11.26.58.58,0,0,0,.14.24,1.87,1.87,0,0,0,.85.72h0L151,30.52l5.65,10.26a.83.83,0,0,0-.23.15h0a2.06,2.06,0,0,0-.51.51l0,.07a.72.72,0,0,0-.11.19,2,2,0,0,0-.19.86,1.27,1.27,0,0,0,0,.28s0,0,0,.06l-12,.5-6.37,10.22a1.87,1.87,0,0,0-.8-.28,1.36,1.36,0,0,0-.29,0,2,2,0,0,0-.56.09l-.23.08h0a1.09,1.09,0,0,0-.23.14l-6.54-10.11-11.94-.32a1.79,1.79,0,0,0,0-.24c0-.1,0-.2,0-.3a1.67,1.67,0,0,0-.19-.57,1.59,1.59,0,0,0-.13-.22v0l-.17-.21-.2-.19,0,0-.21-.14h0a1.23,1.23,0,0,0-.25-.14l5.51-10.4-5.71-10.36.26-.14a2,2,0,0,0,.62-.59,1.74,1.74,0,0,0,.15-.26,2.18,2.18,0,0,0,.11-.27,1.36,1.36,0,0,0,.06-.29,1,1,0,0,0,0-.3,1,1,0,0,0,0-.17l11.93-.5,6.38-10.21a1,1,0,0,0,.23.12s0,0,0,0l.23.08A2,2,0,0,0,135.76,8Zm.35,43.71,6.34-10.15,12.1-.51-5.78-10.46L154.38,20l-12.1-.31L135.78,9.6l-6.32,10.16-12.1.51,5.77,10.47-5.61,10.55,12.11.32Z" transform="translate(3.71 5.4)"/><path class="cls-19" d="M115.65,41.29l.21.14,0,0,.2.19.17.21v0a1.16,1.16,0,0,1,.13.22,1.67,1.67,0,0,1,.19.57c0,.1,0,.2,0,.3a1.79,1.79,0,0,1,0,.24,2,2,0,1,1-2-2.21,2.07,2.07,0,0,1,.82.16,2,2,0,0,1,.25.14Z" transform="translate(3.71 5.4)"/><path class="cls-19" d="M137.2,53.62h0a2,2,0,0,1,.95,1.68,2,2,0,0,1-4,0,2,2,0,0,1,1-1.7l.23-.14h0l.23-.08a2,2,0,0,1,.56-.09,1.43,1.43,0,0,1,.29,0A2.07,2.07,0,0,1,137.2,53.62Z" transform="translate(3.71 5.4)"/><path class="cls-19" d="M157.57,40.55a2,2,0,1,1-2,2.29,1.27,1.27,0,0,1,0-.28,2,2,0,0,1,.19-.86l.11-.19,0-.07a2.24,2.24,0,0,1,.51-.51h0a1.82,1.82,0,0,1,.23-.15h0A2.16,2.16,0,0,1,157.57,40.55Z" transform="translate(3.71 5.4)"/><path class="cls-19" d="M159.41,18.2a2,2,0,0,1-2,2,2.3,2.3,0,0,1-.85-.17h0a2,2,0,0,1-.85-.72,1.88,1.88,0,0,1-.14-.24,1.45,1.45,0,0,1-.11-.26,1.4,1.4,0,0,1-.06-.28,1.43,1.43,0,0,1,0-.29c0-.06,0-.12,0-.17a2,2,0,0,1,4,.13Z" transform="translate(3.71 5.4)"/><path class="cls-19" d="M135.73,4a2,2,0,0,1,2.05,2,2,2,0,0,1-.94,1.69,1.41,1.41,0,0,1-.24.13l-.23.1a.71.71,0,0,1-.2,0,.43.43,0,0,1-.17,0l-.24,0a2,2,0,0,1-.56-.07L135,7.8s0,0,0,0a1.67,1.67,0,0,1-.23-.12,2,2,0,0,1-1-1.68A2,2,0,0,1,135.73,4Z" transform="translate(3.71 5.4)"/><path class="cls-19" d="M116.4,18.37c0,.06,0,.11,0,.17a1,1,0,0,1,0,.3,1.36,1.36,0,0,1-.06.29,2.18,2.18,0,0,1-.11.27,1.74,1.74,0,0,1-.15.26,2,2,0,0,1-.62.59l-.26.14a2,2,0,1,1,1.21-2Z" transform="translate(3.71 5.4)"/><path class="cls-19" d="M142.23,19.73a12.44,12.44,0,0,1,.18,21.72,13,13,0,0,1-6.36,1.72,12.72,12.72,0,0,1-6.38-1.63,12.54,12.54,0,0,1,6.18-23.44A12.72,12.72,0,0,1,142.23,19.73Z" transform="translate(3.71 5.4)"/><path class="cls-20" d="M145.52,22.37a12.42,12.42,0,0,0-3.29-2.64A12.13,12.13,0,0,0,140.6,19a101,101,0,0,0-16.38,16.56,12.63,12.63,0,0,0,4.24,5.24C133.45,34,139.57,28.24,145.52,22.37Z" transform="translate(3.71 5.4)"/><path class="cls-20" d="M147.13,24.64a166.18,166.18,0,0,0-15,18,12.47,12.47,0,0,0,1.52.36,107,107,0,0,1,14.13-17A12.52,12.52,0,0,0,147.13,24.64Z" transform="translate(3.71 5.4)"/><path class="cls-21" d="M123.21,30.74a12.48,12.48,0,0,0,6.46,10.8l0,.07-12.11-.32,5.61-10.55Z" transform="translate(3.71 5.4)"/><path class="cls-21" d="M142.41,41.45l0,.06-6.34,10.15-6.48-10,0-.07a12.72,12.72,0,0,0,6.38,1.63A13,13,0,0,0,142.41,41.45Z" transform="translate(3.71 5.4)"/><path class="cls-21" d="M148.77,30.54,154.55,41l-12.1.51,0-.06a12.49,12.49,0,0,0,6.28-10.91Z" transform="translate(3.71 5.4)"/><path class="cls-21" d="M154.38,20l-5.61,10.57h-.08a12.48,12.48,0,0,0-6.46-10.81l.05-.07Z" transform="translate(3.71 5.4)"/><path class="cls-21" d="M135.78,9.6l6.5,10.06-.05.07a12.72,12.72,0,0,0-6.38-1.63,12.54,12.54,0,0,0-6.35,1.74l0-.08Z" transform="translate(3.71 5.4)"/><path class="cls-21" d="M117.36,20.27l12.1-.51,0,.08a12.48,12.48,0,0,0-6.29,10.9h-.08Z" transform="translate(3.71 5.4)"/><path class="cls-22" d="M129.59,41.66l-6,0-6-.07h-.43l.2-.39c1.81-3.55,3.67-7.07,5.51-10.6v.34c-2-3.47-3.86-7-5.77-10.47l-.27-.51.58,0,12.09-.35-.16.1,3.21-5.05c1.07-1.69,2.13-3.37,3.17-5.07l.12-.19.12.18q3.26,5,6.58,10l-.2-.11,12.1.19H155l-.27.51-5.54,10.6v-.41c1.95,3.48,3.86,7,5.77,10.46l.35.63-.72,0c-4,.16-8.06.33-12.1.44l.31-.18L136.32,51.8l-.22.33-.21-.33c-1-1.69-2.13-3.37-3.17-5.07Zm0-.09,3.36,5c1.12,1.65,2.21,3.32,3.31,5h-.42l6.22-10.22.1-.17h.21c4-.23,8.06-.4,12.09-.58l-.38.66c-1.93-3.49-3.86-7-5.75-10.48l-.12-.2.11-.2L154,19.81l.31.53-12.09-.44h-.13l-.07-.1q-3.18-5.07-6.4-10.11h.23q-1.59,2.54-3.15,5.08l-3.13,5.1-.05.09h-.11l-12.08.66.3-.52c1.94,3.48,3.88,7,5.77,10.47l.09.17-.09.16c-1.88,3.52-3.76,7-5.69,10.52l-.23-.39,6,.25Z" transform="translate(3.71 5.4)"/><path class="cls-22" d="M136,43.6a13,13,0,1,1,13.07-13.07A13.08,13.08,0,0,1,136,43.6Zm-.2-25.07a12.11,12.11,0,1,0,12.4,12A12.22,12.22,0,0,0,135.84,18.53Z" transform="translate(3.71 5.4)"/><path class="cls-21" d="M137.33,54.22,137,54a1.57,1.57,0,0,0-1.67,0l-.37.23-6.63-10.28-12.19-.32,0-.46c0-.11,0-.15,0-.19a1.55,1.55,0,0,0-1-1.42l-.43-.18,5.63-10.61-5.83-10.58L115,20a1.57,1.57,0,0,0,1-1.45l0-.57,12.15-.51,6.47-10.39.37.23a1.61,1.61,0,0,0,1.68,0L137,7l6.64,10.29,12.23.32,0,.54a1.59,1.59,0,0,0,.94,1.45l.42.19-5.67,10.68L157.24,41l-.4.2a1.55,1.55,0,0,0-.86,1.39,2.48,2.48,0,0,0,0,.27l.08.47-12.28.52Zm-1.23-1.33a2.69,2.69,0,0,1,.93.17L143.31,43l11.8-.49a2.37,2.37,0,0,1,1-1.85l-5.58-10.12L156,20.2a2.45,2.45,0,0,1-1-1.71l-11.81-.31-6.45-10a2.49,2.49,0,0,1-1.82,0L128.57,18.3l-11.74.49a2.41,2.41,0,0,1-1.06,1.76l5.62,10.2L116,41A2.44,2.44,0,0,1,117,42.79l11.74.3,6.44,10A2.58,2.58,0,0,1,136.1,52.89Z" transform="translate(3.71 5.4)"/><path class="cls-23" d="M136.06,21.41a1.4,1.4,0,1,0,0,2.79c.78,0,1.47,7.59,1.4-1.41A1.4,1.4,0,0,0,136.06,21.41Z" transform="translate(3.71 5.4)"/><path class="cls-21" d="M134.11,7.07a2.54,2.54,0,0,0,1.44.26,1.89,1.89,0,0,0,.55-.16,1.57,1.57,0,0,0,.43-.27,1.87,1.87,0,0,0,.61-.88,2.54,2.54,0,0,0,0-1.45l.06-.06a2.05,2.05,0,0,1-.09,3,2.16,2.16,0,0,1-1.64.45A2.12,2.12,0,0,1,134,7.13Z" transform="translate(3.71 5.4)"/><path class="cls-24" d="M137.13,4.57a2.94,2.94,0,0,0-1.34,0h-.07s0,0-.05,0a.39.39,0,0,0-.15,0l-.2.1a1.42,1.42,0,0,0-.38.26,2,2,0,0,0-.59.75,2.63,2.63,0,0,0-.24,1.29l-.07,0a2,2,0,0,1-.37-1.43,2,2,0,0,1,.71-1.32,2.13,2.13,0,0,1,2.81.14Z" transform="translate(3.71 5.4)"/><path class="cls-21" d="M134.64,56.6a2.65,2.65,0,0,0,1.42.09l.07,0s.05,0,.06,0a.49.49,0,0,0,.16,0,1.12,1.12,0,0,0,.22-.11,1.47,1.47,0,0,0,.4-.29,2,2,0,0,0,.56-.87,2.68,2.68,0,0,0,0-1.41l.06-.06a2,2,0,0,1,0,3,2.13,2.13,0,0,1-3-.16Z" transform="translate(3.71 5.4)"/><path class="cls-24" d="M137.52,53.92a2.74,2.74,0,0,0-1.38,0,2.45,2.45,0,0,0-.48.21,1.58,1.58,0,0,0-.39.29,2,2,0,0,0-.55.82,2.64,2.64,0,0,0-.08,1.35l-.07.06a2,2,0,0,1,.11-2.86,2.12,2.12,0,0,1,2.89.06Z" transform="translate(3.71 5.4)"/><path class="cls-21" d="M112.87,19.81a2.43,2.43,0,0,0,1.47.12,1.63,1.63,0,0,0,.53-.21,1.49,1.49,0,0,0,.41-.33,1.84,1.84,0,0,0,.5-1,2.44,2.44,0,0,0-.21-1.43l.05-.06a2,2,0,0,1,.29,3.05,2.08,2.08,0,0,1-1.58.63,2.12,2.12,0,0,1-1.53-.74Z" transform="translate(3.71 5.4)"/><path class="cls-24" d="M115.57,17a3.06,3.06,0,0,0-1.33.18,2.54,2.54,0,0,0-.76.54,2,2,0,0,0-.5.8,2.72,2.72,0,0,0-.11,1.3l-.07.05a2,2,0,0,1,0-2.74,2.14,2.14,0,0,1,2.78-.21Z" transform="translate(3.71 5.4)"/><path class="cls-21" d="M113.16,44.35a2.58,2.58,0,0,0,1.41,0,2,2,0,0,0,.88-.52A2,2,0,0,0,116,43a2.58,2.58,0,0,0,0-1.38l.06-.06a2,2,0,0,1,.64,1.44,2.1,2.1,0,0,1-.59,1.48,2.15,2.15,0,0,1-1.5.59,2.12,2.12,0,0,1-1.47-.62Z" transform="translate(3.71 5.4)"/><path class="cls-24" d="M116,41.59a2.83,2.83,0,0,0-1.4,0,2.09,2.09,0,0,0-.87.52,1.86,1.86,0,0,0-.52.86,2.54,2.54,0,0,0,0,1.38l-.06.06a2,2,0,0,1-.62-1.44,2,2,0,0,1,.6-1.46,2.1,2.1,0,0,1,1.48-.59,2.06,2.06,0,0,1,1.46.6Z" transform="translate(3.71 5.4)"/><path class="cls-21" d="M155.81,19.41a2.59,2.59,0,0,0,1.44.18s.13,0,.11,0l.2,0,.22-.11a1.34,1.34,0,0,0,.42-.28,2,2,0,0,0,.58-.88,2.52,2.52,0,0,0,0-1.42l.06-.06a2,2,0,0,1,.63,1.5,2.06,2.06,0,0,1-.68,1.5,2.1,2.1,0,0,1-1.59.49,2.07,2.07,0,0,1-1.44-.79Z" transform="translate(3.71 5.4)"/><path class="cls-24" d="M158.77,16.83a2.67,2.67,0,0,0-1.36,0s-.26.06-.27.09a1,1,0,0,0-.2.11,1.31,1.31,0,0,0-.38.27,2,2,0,0,0-.58.78,1.66,1.66,0,0,0-.09.29,1.14,1.14,0,0,0-.06.29,3,3,0,0,0,0,.75l-.06,0A2,2,0,0,1,155.3,18a2.06,2.06,0,0,1,.67-1.36,2.12,2.12,0,0,1,1.46-.51,2.09,2.09,0,0,1,1.4.61Z" transform="translate(3.71 5.4)"/><path class="cls-21" d="M156.13,43.89a2.72,2.72,0,0,0,1.38,0s.27-.06.28-.09a.85.85,0,0,0,.21-.11,1.56,1.56,0,0,0,.4-.27,2.19,2.19,0,0,0,.57-.82.33.33,0,0,1,.05-.12c0-.06,0-.14,0-.17a.9.9,0,0,0,0-.3,2.83,2.83,0,0,0,0-.76l.07-.06a2,2,0,0,1-.17,2.86,2.1,2.1,0,0,1-1.49.51,2.05,2.05,0,0,1-1.42-.65Z" transform="translate(3.71 5.4)"/><path class="cls-24" d="M159.08,41.29a2.58,2.58,0,0,0-1.42-.11s-.11,0-.12,0a.61.61,0,0,0-.17,0l-.22.1a2,2,0,0,0-1,1.14,2.44,2.44,0,0,0,0,1.39l-.06.06a2,2,0,0,1-.59-1.48,2.05,2.05,0,0,1,.68-1.46,2.1,2.1,0,0,1,3,.22Z" transform="translate(3.71 5.4)"/><path class="cls-25" d="M114.39,18.11a.73.73,0,0,1-.73.73.73.73,0,0,1-.73-.72.71.71,0,0,1,.72-.72A.72.72,0,0,1,114.39,18.11Z" transform="translate(3.71 5.4)"/><path class="cls-25" d="M135.77,5.27a.73.73,0,0,1-.72.73.74.74,0,0,1-.74-.72.73.73,0,0,1,.73-.72A.72.72,0,0,1,135.77,5.27Z" transform="translate(3.71 5.4)"/><path class="cls-25" d="M157.27,17.53a.73.73,0,1,1-.73-.71A.71.71,0,0,1,157.27,17.53Z" transform="translate(3.71 5.4)"/><path class="cls-25" d="M157.46,42A.73.73,0,0,1,156,42a.73.73,0,0,1,.73-.73A.73.73,0,0,1,157.46,42Z" transform="translate(3.71 5.4)"/><path class="cls-25" d="M136.05,54.63a.73.73,0,1,1-.74-.72A.73.73,0,0,1,136.05,54.63Z" transform="translate(3.71 5.4)"/><path class="cls-25" d="M114.58,42.29a.73.73,0,0,1-.73.73.73.73,0,0,1-.73-.72.72.72,0,0,1,.72-.72A.73.73,0,0,1,114.58,42.29Z" transform="translate(3.71 5.4)"/><path class="cls-26" d="M127.63,31.33v-.72L133.18,28v.71L128.33,31l4.89,2.19v.72Z" transform="translate(3.71 5.4)"/><path class="cls-26" d="M134.76,34.72h-.6l3.56-9.9h.62Z" transform="translate(3.71 5.4)"/><path class="cls-26" d="M144.9,30.47v.72l-5.55,2.65v-.72l4.84-2.29-4.88-2.2v-.7Z" transform="translate(3.71 5.4)"/><g class="cls-27"><rect class="cls-28" x="59.25" y="49.56" width="57.31" height="86.69"/></g><g class="cls-29"><polygon class="cls-30" points="74.16 79.63 95.72 49.56 106.14 49.56 59.25 113.63 59.25 91.01 64.51 85.91 74.16 79.63"/></g><g class="cls-31"><polygon class="cls-30" points="104.45 49.56 106.14 49.56 70.72 97.96 104.45 49.56"/></g><g class="cls-32"><rect class="cls-33" x="59.25" y="106.85" width="14.9" height="29.4"/></g><g class="cls-34"><rect class="cls-35" x="78.65" y="86.32" width="36.99" height="49.92"/></g><g class="cls-36"><polygon class="cls-30" points="96.55 136.24 115.64 136.24 94.72 96.53 96.55 136.24"/></g><g class="cls-37"><polygon class="cls-38" points="89.34 86.32 84.05 93.47 106.1 136.24 115.64 136.24 89.34 86.32"/></g><g class="cls-39"><polygon class="cls-38" points="86.77 98.75 106.1 136.24 107.33 136.24 86.77 98.75 86.77 98.75"/></g><g class="cls-40"><rect class="cls-41" x="59.25" y="49.56" width="14.9" height="51.23"/></g><g class="cls-42"><path class="cls-43" d="M63,44.15H55.54V85.61c0,5.1,3.72,2.27,7.45-1.86Z" transform="translate(3.71 5.4)"/></g><g class="cls-44"><path class="cls-43" d="M56.36,88.19h0m14.08-14c-4,4.26-11.31,8.16-14.9.75V85.61a2.71,2.71,0,0,0,0,.29A3.68,3.68,0,0,0,56,87.82C58.42,91.49,69.93,75,70.44,74.22Z" transform="translate(3.71 5.4)"/></g><g class="cls-45"><path class="cls-43" d="M58,88.08l-.47.18.47-.18m-2.47,20.15v22.61c.65-10.68,14.9-29.4,14.9-29.4l4.5-6.07,5.4-7.3,5.29-7.15c-10.31,12.2-15.92,13.9-19,12.13C63,90.93,63,83.84,63,83.76c-2,2.22-4,4.07-5.45,4.5A1.25,1.25,0,0,1,56,87.82a3.28,3.28,0,0,1-.42-1.55h0c0-.12,0-.24,0-.37a2.71,2.71,0,0,1,0-.29Z" transform="translate(3.71 5.4)"/></g><g class="cls-46"><path class="cls-43" d="M85.63,80.92l-5.29,7.15-5.4,7.3,14,27.7c-4-11.12-8.49-30.94-3.29-42.15" transform="translate(3.71 5.4)"/></g><g class="cls-47"><path class="cls-43" d="M55.54,130.84s7.68-14,14.9-13.62V101.44s-14.25,18.72-14.9,29.4" transform="translate(3.71 5.4)"/></g><g class="cls-48"><polygon class="cls-30" points="74.16 79.63 116.56 49.56 95.72 49.56 74.16 79.63"/></g></g></g></g></svg>