<svg xmlns="http://www.w3.org/2000/svg" xmlns:xlink="http://www.w3.org/1999/xlink" viewBox="0 0 190.7 190.47"><defs><style>.cls-1{fill:url(#linear-gradient);}.cls-2{fill:url(#linear-gradient-2);}.cls-3{fill:url(#linear-gradient-3);}.cls-4{fill:url(#linear-gradient-4);}.cls-5{fill:url(#linear-gradient-5);}.cls-6{fill:url(#linear-gradient-6);}.cls-7{fill:url(#linear-gradient-7);}.cls-8{fill:url(#linear-gradient-8);}.cls-9{fill:url(#linear-gradient-9);}.cls-10{fill:url(#linear-gradient-10);}.cls-11{fill:url(#linear-gradient-11);}.cls-12{fill:url(#Degradado_sin_nombre_105);}.cls-13{fill:none;clip-rule:evenodd;}.cls-14{isolation:isolate;}.cls-15{clip-path:url(#clip-path);}.cls-16,.cls-17,.cls-18{opacity:0.6;}.cls-16,.cls-17,.cls-18,.cls-27{mix-blend-mode:multiply;}.cls-16{fill:url(#Degradado_sin_nombre_119);}.cls-17{fill:url(#Degradado_sin_nombre_119-2);}.cls-18{fill:url(#Degradado_sin_nombre_119-3);}.cls-19,.cls-20{fill:#ffdd50;}.cls-20,.cls-23{mix-blend-mode:screen;}.cls-21{fill:#fca000;}.cls-22{fill:#cc7b06;}.cls-23{fill:#bf3d0d;}.cls-24{fill:#ffe98e;}.cls-25{fill:#fff;}.cls-26{fill:#e3ad4d;}.cls-27{fill:#225592;opacity:0.2;}.cls-28{clip-path:url(#clip-path-2);}.cls-29{fill:url(#linear-gradient-12);}.cls-30{mask:url(#mask);}.cls-31{fill:#5ef9f6;}.cls-31,.cls-39,.cls-44{fill-rule:evenodd;}.cls-32{mask:url(#mask-2);}.cls-33{clip-path:url(#clip-path-3);}.cls-34{fill:url(#linear-gradient-13);}.cls-35{clip-path:url(#clip-path-4);}.cls-36{fill:url(#linear-gradient-14);}.cls-37{mask:url(#mask-3);}.cls-38{mask:url(#mask-4);}.cls-39{fill:#51f4e9;}.cls-40{mask:url(#mask-5);}.cls-41{clip-path:url(#clip-path-5);}.cls-42{fill:url(#linear-gradient-15);}.cls-43{mask:url(#mask-6);}.cls-44{fill:#102770;}.cls-45{mask:url(#mask-7);}.cls-46{mask:url(#mask-8);}.cls-47{mask:url(#mask-9);}.cls-48{mask:url(#mask-10);}.cls-49{mask:url(#mask-11);}</style><linearGradient id="linear-gradient" x1="-4339.93" y1="563.21" x2="-4419.53" y2="645.95" gradientTransform="translate(4479.46 -537.9)" gradientUnits="userSpaceOnUse"><stop offset="0" stop-color="#fff"/><stop offset="1"/></linearGradient><linearGradient id="linear-gradient-2" x1="-4487.09" y1="703.51" x2="-4525.51" y2="747.57" gradientTransform="translate(4606.77 -662.42)" xlink:href="#linear-gradient"/><linearGradient id="linear-gradient-3" x1="-4531.64" y1="827.67" x2="-4550.45" y2="885.39" gradientTransform="translate(4644.96 -808.15)" xlink:href="#linear-gradient"/><linearGradient id="linear-gradient-4" x1="-4732.14" y1="464.42" x2="-4778.68" y2="477.61" gradientTransform="translate(4873.37 -358.16)" xlink:href="#linear-gradient"/><linearGradient id="linear-gradient-5" x1="-4607.35" y1="524.33" x2="-4664.37" y2="452.16" gradientTransform="translate(4754.87 -358.16)" xlink:href="#linear-gradient"/><linearGradient id="linear-gradient-6" x1="-4641.21" y1="529.44" x2="-4698.86" y2="456.48" gradientTransform="translate(4785.06 -358.16)" xlink:href="#linear-gradient"/><linearGradient id="linear-gradient-7" x1="-4412.15" y1="784.9" x2="-4413.78" y2="745.79" gradientTransform="translate(4479.46 -695.87)" xlink:href="#linear-gradient"/><linearGradient id="linear-gradient-8" x1="-4430.37" y1="794.24" x2="-4395.17" y2="773.29" gradientTransform="translate(4479.46 -695.86)" xlink:href="#linear-gradient"/><linearGradient id="linear-gradient-9" x1="-4400.04" y1="499.98" x2="-4402.63" y2="447.51" gradientTransform="translate(4479.46 -358.16)" xlink:href="#linear-gradient"/><linearGradient id="linear-gradient-10" x1="-4602.69" y1="487.65" x2="-4607.57" y2="551.41" gradientTransform="translate(4694.87 -419.92)" xlink:href="#linear-gradient"/><linearGradient id="linear-gradient-11" x1="-4396.79" y1="461.19" x2="-4420.41" y2="494.71" gradientTransform="translate(4479.46 -358.16)" xlink:href="#linear-gradient"/><linearGradient id="Degradado_sin_nombre_105" x1="91.48" y1="170.2" x2="91.48" y2="7.15" gradientUnits="userSpaceOnUse"><stop offset="0" stop-color="#4479ff"/><stop offset="1" stop-color="#54ff93"/></linearGradient><clipPath id="clip-path" transform="translate(-3.57 0.92)"><path class="cls-12" d="M91.48,4.48C45,4.48,7.28,42,7.28,88.34s37.7,83.87,84.2,83.87a84,84,0,0,0,84.19-83.87C175.67,42,138,4.48,91.48,4.48Zm0,156.93a73.07,73.07,0,1,1,73.35-73.07A73.21,73.21,0,0,1,91.48,161.41Z"/></clipPath><linearGradient id="Degradado_sin_nombre_119" x1="59.87" y1="44.68" x2="124.4" y2="21.32" gradientUnits="userSpaceOnUse"><stop offset="0" stop-color="#54ff93" stop-opacity="0"/><stop offset="0.19" stop-color="#4bd6a0" stop-opacity="0.24"/><stop offset="0.48" stop-color="#3ea0b2" stop-opacity="0.56"/><stop offset="0.71" stop-color="#3578bf" stop-opacity="0.8"/><stop offset="0.9" stop-color="#2f5fc7" stop-opacity="0.95"/><stop offset="1" stop-color="#2d56ca"/></linearGradient><linearGradient id="Degradado_sin_nombre_119-2" x1="-4282.25" y1="2570.19" x2="-4217.89" y2="2546.9" gradientTransform="translate(-4283.42 -2333.99) rotate(-119.41)" xlink:href="#Degradado_sin_nombre_119"/><linearGradient id="Degradado_sin_nombre_119-3" x1="-4911.26" y1="-1856.45" x2="-4846.91" y2="-1879.74" gradientTransform="translate(-4559.39 2398.92) rotate(133.24)" xlink:href="#Degradado_sin_nombre_119"/><clipPath id="clip-path-2" transform="translate(-3.57 0.92)"><polygon class="cls-13" points="77.73 78.71 99.29 48.64 120.13 48.64 92.91 85.4 82.22 99.85 82.22 99.85 77.73 105.92 77.73 135.32 62.82 135.32 62.82 90.09 68.08 84.98 77.73 78.71"/></clipPath><linearGradient id="linear-gradient-12" x1="47.4" y1="131.61" x2="146.57" y2="36.83" gradientUnits="userSpaceOnUse"><stop offset="0" stop-color="#102770"/><stop offset="1" stop-color="#37dacf"/></linearGradient><mask id="mask" x="59.25" y="49.56" width="46.89" height="64.07" maskUnits="userSpaceOnUse"><g transform="translate(-3.57 0.92)"><rect class="cls-1" x="62.82" y="48.64" width="46.89" height="64.07"/></g></mask><mask id="mask-2" x="70.72" y="49.56" width="35.42" height="48.41" maskUnits="userSpaceOnUse"><g transform="translate(-3.57 0.92)"><rect class="cls-2" x="74.29" y="48.64" width="35.42" height="48.41"/></g></mask><clipPath id="clip-path-3" transform="translate(-3.57 0.92)"><path class="cls-13" d="M77.73,105.92s-14.25,18.72-14.91,29.4H77.73Z"/></clipPath><linearGradient id="linear-gradient-13" x1="64.44" y1="118.51" x2="79.07" y2="138.08" gradientUnits="userSpaceOnUse"><stop offset="0" stop-color="#102770"/><stop offset="1" stop-color="#267a9e"/></linearGradient><clipPath id="clip-path-4" transform="translate(-3.57 0.92)"><polygon class="cls-13" points="92.91 85.4 82.22 99.85 100.13 135.32 119.21 135.32 92.91 85.4"/></clipPath><linearGradient id="linear-gradient-14" x1="72.41" y1="97.55" x2="151.23" y2="141.32" xlink:href="#linear-gradient-12"/><mask id="mask-3" x="94.72" y="96.54" width="20.92" height="39.71" maskUnits="userSpaceOnUse"><g transform="translate(-3.57 0.92)"><rect class="cls-4" x="98.29" y="95.61" width="20.92" height="39.71"/></g></mask><mask id="mask-4" x="84.05" y="86.32" width="31.59" height="49.92" maskUnits="userSpaceOnUse"><g transform="translate(-3.57 0.92)"><rect class="cls-5" x="87.62" y="85.4" width="31.59" height="49.92"/></g></mask><mask id="mask-5" x="86.77" y="98.74" width="20.56" height="37.5" maskUnits="userSpaceOnUse"><g transform="translate(-3.57 0.92)"><rect class="cls-6" x="90.34" y="97.82" width="20.56" height="37.5"/></g></mask><clipPath id="clip-path-5" transform="translate(-3.57 0.92)"><path class="cls-13" d="M77.73,78.71V48.64H62.82V90.09c0,9.77,13.68-9.58,14.91-11.38"/></clipPath><linearGradient id="linear-gradient-15" x1="76.37" y1="97.13" x2="47.2" y2="30.89" xlink:href="#linear-gradient-12"/><mask id="mask-6" x="59.25" y="49.56" width="7.45" height="44.2" maskUnits="userSpaceOnUse"><g transform="translate(-3.57 0.92)"><rect class="cls-7" x="62.82" y="48.64" width="7.45" height="44.2"/></g></mask><mask id="mask-7" x="59.25" y="79.63" width="14.9" height="14.13" maskUnits="userSpaceOnUse"><g transform="translate(-3.57 0.92)"><rect class="cls-8" x="62.82" y="78.71" width="14.9" height="14.13"/></g></mask><mask id="mask-8" x="59.25" y="86.32" width="30.09" height="49.92" maskUnits="userSpaceOnUse"><g transform="translate(-3.57 0.92)"><rect class="cls-9" x="62.82" y="85.4" width="30.09" height="49.92"/></g></mask><mask id="mask-9" x="78.65" y="86.32" width="13.98" height="42.15" maskUnits="userSpaceOnUse"><g transform="translate(-3.57 0.92)"><rect class="cls-10" x="82.22" y="85.4" width="13.98" height="42.15"/></g></mask><mask id="mask-10" x="59.25" y="106.85" width="14.9" height="29.4" maskUnits="userSpaceOnUse"><g transform="translate(-3.57 0.92)"><rect class="cls-11" x="62.82" y="105.92" width="14.9" height="29.4"/></g></mask><mask id="mask-11" x="74.16" y="49.56" width="42.41" height="30.07" maskUnits="userSpaceOnUse"><g transform="translate(-3.57 0.92)"><rect class="cls-3" x="77.73" y="48.64" width="42.41" height="30.07"/></g></mask></defs><title>TsaraKely</title><g class="cls-14"><g id="Calque_1" data-name="Calque 1"><path class="cls-12" d="M91.48,4.48C45,4.48,7.28,42,7.28,88.34s37.7,83.87,84.2,83.87a84,84,0,0,0,84.19-83.87C175.67,42,138,4.48,91.48,4.48Zm0,156.93a73.07,73.07,0,1,1,73.35-73.07A73.21,73.21,0,0,1,91.48,161.41Z" transform="translate(-3.57 0.92)"/><g class="cls-15"><path class="cls-16" d="M67.55-.86s68.54-4.5,63.52,62.52A616.82,616.82,0,0,1,21.6,29.9Z" transform="translate(-3.57 0.92)"/><path class="cls-17" d="M15,149.68S-22.58,92.42,38.5,63.87a610.07,610.07,0,0,1,26,110.57Z" transform="translate(-3.57 0.92)"/><path class="cls-18" d="M185.3,129.5s-43.66,52.83-89.24,3.27a616,616,0,0,1,98.21-57.68Z" transform="translate(-3.57 0.92)"/></g><path class="cls-19" d="M143,12.43l.25,0a.45.45,0,0,0,.16,0,.71.71,0,0,0,.2,0l.23-.1a.8.8,0,0,0,.24-.13l6.54,10.13,12,.31c0,.06,0,.11,0,.17a1.5,1.5,0,0,0,0,.29,1.4,1.4,0,0,0,.06.28,1.19,1.19,0,0,0,.11.26.72.72,0,0,0,.14.24,1.87,1.87,0,0,0,.85.72h0L158.28,35l5.65,10.26-.23.15h0a2.06,2.06,0,0,0-.51.51l0,.07a.72.72,0,0,0-.11.19,2,2,0,0,0-.19.86,1.27,1.27,0,0,0,0,.28s0,0,0,.06l-12,.5L144.49,58.1a1.87,1.87,0,0,0-.8-.28,1.37,1.37,0,0,0-.29,0,2,2,0,0,0-.56.08l-.23.08h0a1.42,1.42,0,0,0-.23.14L135.82,48l-11.95-.32a1.66,1.66,0,0,0,0-.24,1.53,1.53,0,0,0,0-.3,1.74,1.74,0,0,0-.19-.57,1,1,0,0,0-.13-.22,0,0,0,0,1,0,0,1.06,1.06,0,0,0-.17-.2,1.89,1.89,0,0,0-.2-.2l0,0-.21-.14h0a1.23,1.23,0,0,0-.25-.14l5.51-10.39-5.71-10.37.26-.14a2,2,0,0,0,.62-.59,1.16,1.16,0,0,0,.15-.26,2.18,2.18,0,0,0,.11-.27,1.24,1.24,0,0,0,.06-.29,1.53,1.53,0,0,0,0-.3,1,1,0,0,0,0-.17l11.93-.5L142,12.14a1.27,1.27,0,0,0,.23.12.05.05,0,0,1,0,0l.22.08A2,2,0,0,0,143,12.43Zm.36,43.71L149.73,46l12.1-.52L156.05,35l5.61-10.56-12.1-.32-6.49-10-6.33,10.15-12.1.51,5.78,10.47-5.61,10.55,12.1.33Z" transform="translate(-3.57 0.92)"/><path class="cls-19" d="M122.93,45.77l.21.14,0,0a1.89,1.89,0,0,1,.2.2,1.63,1.63,0,0,1,.17.2,0,0,0,0,0,0,0,.8.8,0,0,1,.13.22,1.74,1.74,0,0,1,.19.57,1.53,1.53,0,0,1,0,.3,1.66,1.66,0,0,1,0,.24,2,2,0,0,1-2,1.78,2,2,0,1,1,1-3.69Z" transform="translate(-3.57 0.92)"/><path class="cls-19" d="M144.48,58.1h0a2,2,0,0,1,1,1.68,2,2,0,0,1-4.06,0,2,2,0,0,1,1-1.7l.23-.14h0l.23-.08a2,2,0,0,1,.56-.08,1.42,1.42,0,0,1,.29,0A2.07,2.07,0,0,1,144.48,58.1Z" transform="translate(-3.57 0.92)"/><path class="cls-19" d="M164.85,45a2,2,0,1,1,0,4,2,2,0,0,1-2-1.71,1.27,1.27,0,0,1,0-.28,2,2,0,0,1,.19-.86l.11-.19,0-.07a2.24,2.24,0,0,1,.51-.51h0a2,2,0,0,1,.23-.14h0A2,2,0,0,1,164.85,45Z" transform="translate(-3.57 0.92)"/><path class="cls-19" d="M166.69,22.69a2,2,0,0,1-2,2,2.11,2.11,0,0,1-.85-.17h0a2,2,0,0,1-.85-.72,1.88,1.88,0,0,1-.14-.24,1.19,1.19,0,0,1-.11-.26,1.4,1.4,0,0,1-.06-.28,1.43,1.43,0,0,1,0-.29c0-.06,0-.11,0-.17a2,2,0,0,1,4,.14Z" transform="translate(-3.57 0.92)"/><path class="cls-19" d="M143,8.45a2,2,0,0,1,2.05,2,2,2,0,0,1-.94,1.69.8.8,0,0,1-.24.13l-.23.1a.71.71,0,0,1-.2,0,.41.41,0,0,1-.16,0l-.25,0a2,2,0,0,1-.56-.07l-.22-.08a.05.05,0,0,0,0,0l-.23-.12a2,2,0,0,1-1-1.68A2,2,0,0,1,143,8.45Z" transform="translate(-3.57 0.92)"/><path class="cls-19" d="M123.68,22.85a1,1,0,0,1,0,.17,1.45,1.45,0,0,1,0,.3,1.24,1.24,0,0,1-.06.29,2.18,2.18,0,0,1-.11.27,1,1,0,0,1-.15.26,2,2,0,0,1-.62.59l-.26.14a2,2,0,1,1,1.22-2Z" transform="translate(-3.57 0.92)"/><path class="cls-19" d="M149.52,24.21a12.45,12.45,0,0,1,.17,21.72,12.89,12.89,0,0,1-6.36,1.72A12.72,12.72,0,0,1,137,46a12.43,12.43,0,0,1-.17-21.7,12.88,12.88,0,0,1,12.74-.11Z" transform="translate(-3.57 0.92)"/><path class="cls-20" d="M152.81,26.85a12.75,12.75,0,0,0-3.29-2.64,13.63,13.63,0,0,0-1.64-.77A100.66,100.66,0,0,0,131.5,40a12.66,12.66,0,0,0,4.24,5.23C140.73,38.43,146.85,32.72,152.81,26.85Z" transform="translate(-3.57 0.92)"/><path class="cls-20" d="M154.41,29.12a168.33,168.33,0,0,0-15,18,12.47,12.47,0,0,0,1.52.36,107.4,107.4,0,0,1,14.13-17A13.53,13.53,0,0,0,154.41,29.12Z" transform="translate(-3.57 0.92)"/><path class="cls-21" d="M130.5,35.22A12.47,12.47,0,0,0,137,46l0,.08-12.1-.33,5.61-10.55Z" transform="translate(-3.57 0.92)"/><path class="cls-21" d="M149.69,45.93l0,.07L143.4,56.14l-6.49-10,0-.08a12.72,12.72,0,0,0,6.38,1.63A12.89,12.89,0,0,0,149.69,45.93Z" transform="translate(-3.57 0.92)"/><path class="cls-21" d="M156.05,35l5.78,10.46-12.1.52,0-.07A12.49,12.49,0,0,0,156,35Z" transform="translate(-3.57 0.92)"/><path class="cls-21" d="M161.66,24.46,156.05,35H156a12.48,12.48,0,0,0-6.45-10.81l0-.07Z" transform="translate(-3.57 0.92)"/><path class="cls-21" d="M143.07,14.09l6.49,10.05,0,.07a12.88,12.88,0,0,0-12.74.11l0-.08Z" transform="translate(-3.57 0.92)"/><path class="cls-21" d="M124.64,24.75l12.1-.51,0,.08a12.46,12.46,0,0,0-6.28,10.9h-.08Z" transform="translate(-3.57 0.92)"/><path class="cls-22" d="M136.87,46.14l-6,0-6-.07h-.42l.19-.39c1.81-3.55,3.67-7.07,5.51-10.6v.34c-2-3.47-3.86-7-5.76-10.47l-.28-.51h.58l12.1-.35-.17.09,3.21-5.05c1.07-1.69,2.13-3.37,3.18-5.07l.11-.19.13.18c2.16,3.35,4.36,6.68,6.57,10l-.2-.11,12.11.19h.58l-.27.52-5.54,10.59v-.41c1.95,3.48,3.86,7,5.78,10.47l.34.62-.72,0c-4,.16-8.06.33-12.1.44l.32-.18L143.6,56.28l-.22.33-.2-.33c-1.06-1.69-2.14-3.37-3.18-5.07Zm0-.09,3.36,5c1.13,1.65,2.21,3.33,3.32,5h-.43l6.22-10.22.1-.17h.21c4-.23,8.06-.4,12.09-.57l-.37.65c-1.93-3.49-3.87-7-5.76-10.48l-.11-.2.11-.2,5.66-10.53.32.53-12.1-.44h-.13l-.06-.1q-3.19-5.07-6.41-10.1h.24c-1.07,1.69-2.12,3.39-3.16,5.08l-3.13,5.11,0,.08h-.11l-12.08.67.3-.53c1.94,3.48,3.88,7,5.77,10.47l.09.17-.08.17c-1.89,3.51-3.77,7-5.69,10.51l-.24-.39,6,.25Z" transform="translate(-3.57 0.92)"/><path class="cls-22" d="M143.32,48.08A13,13,0,1,1,156.39,35,13.08,13.08,0,0,1,143.32,48.08ZM143.13,23a12.11,12.11,0,1,0,12.39,12A12.22,12.22,0,0,0,143.13,23Z" transform="translate(-3.57 0.92)"/><path class="cls-21" d="M144.61,58.7l-.37-.23a1.59,1.59,0,0,0-1.68,0l-.36.22-6.64-10.28-12.19-.32,0-.46a.89.89,0,0,0,0-.19,1.56,1.56,0,0,0-1-1.42l-.43-.18,5.63-10.61-5.83-10.58.44-.19a1.55,1.55,0,0,0,1-1.45l0-.57,12.15-.51,6.47-10.39.38.23a1.59,1.59,0,0,0,1.67,0l.37-.24,6.65,10.3,12.22.32,0,.53a1.55,1.55,0,0,0,.93,1.45l.42.19L158.76,35l5.76,10.45-.4.2a1.57,1.57,0,0,0-.86,1.39,2.48,2.48,0,0,0,0,.27l.08.48-12.28.51Zm-1.22-1.33a2.67,2.67,0,0,1,.92.17l6.28-10.08,11.8-.49a2.41,2.41,0,0,1,1-1.85L157.77,35l5.48-10.32a2.45,2.45,0,0,1-1-1.71l-11.81-.31-6.44-10a2.46,2.46,0,0,1-1.83,0l-6.28,10.08-11.74.49A2.41,2.41,0,0,1,123.05,25l5.62,10.2-5.43,10.24a2.45,2.45,0,0,1,1.07,1.8l11.74.31,6.44,10A2.49,2.49,0,0,1,143.39,57.37Z" transform="translate(-3.57 0.92)"/><path class="cls-23" d="M143.34,25.89a1.4,1.4,0,1,0,0,2.79c.78,0,1.47,7.59,1.4-1.41A1.4,1.4,0,0,0,143.34,25.89Z" transform="translate(-3.57 0.92)"/><path class="cls-21" d="M141.39,11.56a2.52,2.52,0,0,0,1.44.25,1.89,1.89,0,0,0,.55-.16,1.36,1.36,0,0,0,.43-.27,1.87,1.87,0,0,0,.61-.88,2.42,2.42,0,0,0,0-1.44l.06-.07a2,2,0,0,1-.09,3,2.16,2.16,0,0,1-1.64.45,2.12,2.12,0,0,1-1.42-.87Z" transform="translate(-3.57 0.92)"/><path class="cls-24" d="M144.41,9.06a2.83,2.83,0,0,0-1.34,0l-.06,0-.06,0-.15,0-.2.1a1.42,1.42,0,0,0-.38.26,2.12,2.12,0,0,0-.59.75,2.77,2.77,0,0,0-.24,1.3l-.07,0a2,2,0,0,1,.34-2.74,2.11,2.11,0,0,1,2.81.13Z" transform="translate(-3.57 0.92)"/><path class="cls-21" d="M141.92,61.08a2.65,2.65,0,0,0,1.42.09l.07,0s.05,0,.07,0a.5.5,0,0,0,.15-.05,1.12,1.12,0,0,0,.22-.11,1.28,1.28,0,0,0,.4-.29,1.88,1.88,0,0,0,.56-.87,2.58,2.58,0,0,0,0-1.41l.06-.06a2,2,0,0,1,0,3,2.13,2.13,0,0,1-3-.16Z" transform="translate(-3.57 0.92)"/><path class="cls-24" d="M144.8,58.41a2.65,2.65,0,0,0-1.38,0,2.75,2.75,0,0,0-.48.21,1.53,1.53,0,0,0-.38.29,2,2,0,0,0-.56.82,2.76,2.76,0,0,0-.08,1.35l-.07.06a2.06,2.06,0,0,1-.53-1.44,2,2,0,0,1,2.11-2,2.11,2.11,0,0,1,1.43.6Z" transform="translate(-3.57 0.92)"/><path class="cls-21" d="M120.15,24.29a2.43,2.43,0,0,0,1.47.12,1.63,1.63,0,0,0,.53-.21,1.33,1.33,0,0,0,.41-.33,1.78,1.78,0,0,0,.5-1,2.42,2.42,0,0,0-.21-1.43l.05-.07a2,2,0,0,1,.84,1.45,2.07,2.07,0,0,1-.54,1.6,2.12,2.12,0,0,1-3.12-.11Z" transform="translate(-3.57 0.92)"/><path class="cls-24" d="M122.85,21.48a3.06,3.06,0,0,0-1.33.18,2.54,2.54,0,0,0-.76.54,2,2,0,0,0-.5.8,2.88,2.88,0,0,0-.11,1.3l-.07.05a2,2,0,0,1-.5-1.37,2,2,0,0,1,.54-1.37,2.12,2.12,0,0,1,1.36-.62,2.16,2.16,0,0,1,1.42.41Z" transform="translate(-3.57 0.92)"/><path class="cls-21" d="M120.44,48.84a2.78,2.78,0,0,0,1.41,0,2.17,2.17,0,0,0,.88-.52,2.06,2.06,0,0,0,.53-.87,2.62,2.62,0,0,0,0-1.39l.06-.06a2,2,0,0,1,.64,1.44,2,2,0,0,1-.59,1.48,2.15,2.15,0,0,1-1.5.59,2.07,2.07,0,0,1-1.46-.62Z" transform="translate(-3.57 0.92)"/><path class="cls-24" d="M123.24,46.07a2.78,2.78,0,0,0-1.39,0,2.13,2.13,0,0,0-.87.52,1.85,1.85,0,0,0-.53.86,2.54,2.54,0,0,0,0,1.38l-.06.06a2.09,2.09,0,0,1-.62-1.44,2,2,0,0,1,.6-1.46,2.11,2.11,0,0,1,2.94,0Z" transform="translate(-3.57 0.92)"/><path class="cls-21" d="M163.1,23.9a2.53,2.53,0,0,0,1.43.17s.13,0,.11,0l.21,0,.21-.11a1.34,1.34,0,0,0,.42-.28,2,2,0,0,0,.58-.88,2.44,2.44,0,0,0,0-1.42l.06-.06a2,2,0,0,1,.64,1.5,2.07,2.07,0,0,1-.69,1.5,2.15,2.15,0,0,1-1.59.5A2.12,2.12,0,0,1,163,24Z" transform="translate(-3.57 0.92)"/><path class="cls-24" d="M166.05,21.31a2.91,2.91,0,0,0-1.36,0s-.26.06-.26.09l-.21.11a1.31,1.31,0,0,0-.38.27,2,2,0,0,0-.58.78,2.82,2.82,0,0,0-.09.3,1,1,0,0,0-.06.28,2.64,2.64,0,0,0,0,.75L163,24a2,2,0,0,1,.22-2.8,2.12,2.12,0,0,1,1.46-.51,2.09,2.09,0,0,1,1.4.61Z" transform="translate(-3.57 0.92)"/><path class="cls-21" d="M163.41,48.37a2.65,2.65,0,0,0,1.39,0s.26-.06.27-.09a.85.85,0,0,0,.21-.11,1.41,1.41,0,0,0,.4-.27,2,2,0,0,0,.57-.82.43.43,0,0,1,.05-.12c0-.06,0-.14,0-.17a1.13,1.13,0,0,0,.06-.3,2.88,2.88,0,0,0,0-.76l.07-.06a2,2,0,0,1-.17,2.86,2,2,0,0,1-1.49.51,2.11,2.11,0,0,1-1.42-.64Z" transform="translate(-3.57 0.92)"/><path class="cls-24" d="M166.36,45.77a2.58,2.58,0,0,0-1.42-.11s-.11,0-.12,0a.61.61,0,0,0-.17,0l-.22.1a2,2,0,0,0-1,1.14,2.57,2.57,0,0,0,0,1.4l-.06,0a2,2,0,0,1,.09-2.94A2.1,2.1,0,0,1,165,45a2.12,2.12,0,0,1,1.44.73Z" transform="translate(-3.57 0.92)"/><path class="cls-25" d="M121.67,22.59a.73.73,0,0,1-1.46,0,.73.73,0,0,1,1.46,0Z" transform="translate(-3.57 0.92)"/><path class="cls-25" d="M143.06,9.75a.74.74,0,0,1-1.47,0,.74.74,0,0,1,1.47,0Z" transform="translate(-3.57 0.92)"/><path class="cls-25" d="M164.55,22a.73.73,0,1,1-.73-.71A.72.72,0,0,1,164.55,22Z" transform="translate(-3.57 0.92)"/><path class="cls-25" d="M164.74,46.44a.72.72,0,0,1-.72.72.72.72,0,1,1,0-1.43A.71.71,0,0,1,164.74,46.44Z" transform="translate(-3.57 0.92)"/><path class="cls-25" d="M143.33,59.11a.73.73,0,1,1-.74-.72A.72.72,0,0,1,143.33,59.11Z" transform="translate(-3.57 0.92)"/><path class="cls-25" d="M121.86,46.77a.73.73,0,1,1-.74-.71A.73.73,0,0,1,121.86,46.77Z" transform="translate(-3.57 0.92)"/><path class="cls-26" d="M134.91,35.81v-.72l5.56-2.64v.71l-4.85,2.3,4.89,2.19v.72Z" transform="translate(-3.57 0.92)"/><path class="cls-26" d="M142,39.2h-.59L145,29.3h.62Z" transform="translate(-3.57 0.92)"/><path class="cls-26" d="M152.18,35v.72l-5.55,2.65V37.6l4.84-2.29-4.87-2.2v-.7Z" transform="translate(-3.57 0.92)"/><path class="cls-27" d="M128.58,183.83c0-3.16-17.61-5.72-39.33-5.72s-39.34,2.56-39.34,5.72,17.61,5.72,39.34,5.72S128.58,187,128.58,183.83Z" transform="translate(-3.57 0.92)"/><g class="cls-28"><rect class="cls-29" x="59.25" y="49.56" width="57.31" height="86.69"/></g><g class="cls-30"><polygon class="cls-31" points="74.16 79.63 95.72 49.56 106.14 49.56 59.25 113.63 59.25 91.01 64.51 85.91 74.16 79.63"/></g><g class="cls-32"><polygon class="cls-31" points="104.45 49.56 106.14 49.56 70.72 97.96 104.45 49.56"/></g><g class="cls-33"><rect class="cls-34" x="59.25" y="106.85" width="14.9" height="29.4"/></g><g class="cls-35"><rect class="cls-36" x="78.65" y="86.32" width="36.99" height="49.92"/></g><g class="cls-37"><polygon class="cls-31" points="96.55 136.24 115.64 136.24 94.72 96.53 96.55 136.24"/></g><g class="cls-38"><polygon class="cls-39" points="89.34 86.32 84.05 93.47 106.1 136.24 115.64 136.24 89.34 86.32"/></g><g class="cls-40"><polygon class="cls-39" points="86.77 98.75 106.1 136.24 107.33 136.24 86.77 98.75 86.77 98.75"/></g><g class="cls-41"><rect class="cls-42" x="59.25" y="49.56" width="14.9" height="51.23"/></g><g class="cls-43"><path class="cls-44" d="M70.27,48.64H62.82V90.09c0,5.1,3.72,2.27,7.45-1.85Z" transform="translate(-3.57 0.92)"/></g><g class="cls-45"><path class="cls-44" d="M63.64,92.67h0m14.09-14c-4,4.25-11.32,8.15-14.91.74V90.09c0,.1,0,.2,0,.3a3.74,3.74,0,0,0,.44,1.91C65.7,96,77.21,79.47,77.73,78.71Z" transform="translate(-3.57 0.92)"/></g><g class="cls-46"><path class="cls-44" d="M65.29,92.56l-.47.18.47-.18m-2.47,20.15v22.61c.66-10.68,14.91-29.4,14.91-29.4l4.49-6.07,5.4-7.3,5.29-7.15C82.6,97.6,77,99.31,73.93,97.53c-3.65-2.12-3.66-9.2-3.66-9.29-2,2.22-4,4.07-5.45,4.5a1.25,1.25,0,0,1-1.55-.44,3.24,3.24,0,0,1-.42-1.55h0c0-.12,0-.24,0-.36s0-.2,0-.3Z" transform="translate(-3.57 0.92)"/></g><g class="cls-47"><path class="cls-44" d="M92.91,85.4l-5.29,7.15-5.4,7.3,14,27.7c-4-11.11-8.49-30.94-3.29-42.15" transform="translate(-3.57 0.92)"/></g><g class="cls-48"><path class="cls-44" d="M62.82,135.32s7.68-14,14.91-13.62V105.92s-14.25,18.72-14.91,29.4" transform="translate(-3.57 0.92)"/></g><g class="cls-49"><polygon class="cls-31" points="74.16 79.63 116.56 49.56 95.72 49.56 74.16 79.63"/></g></g></g></svg>